<?xml version="1.0" standalone="no"?>
<!DOCTYPE svg PUBLIC "-//W3C//DTD SVG 20010904//EN"
 "http://www.w3.org/TR/2001/REC-SVG-20010904/DTD/svg10.dtd">
<svg version="1.0" xmlns="http://www.w3.org/2000/svg"
 width="600.000000pt" height="400.000000pt" viewBox="0 0 600.000000 400.000000"
 preserveAspectRatio="xMidYMid meet">

<g transform="translate(0.000000,400.000000) scale(0.100000,-0.100000)"
fill="#000000" stroke="none">
<path d="M2855 3563 c-269 -34 -498 -119 -724 -268 -85 -56 -125 -99 -59 -64
15 8 19 8 14 0 -9 -15 -5 -14 32 4 17 9 34 25 37 35 9 29 28 25 21 -5 -6 -23
-5 -24 23 -14 16 6 32 17 35 25 3 8 14 14 24 14 27 0 45 23 30 38 -9 9 -7 12
9 12 12 0 25 -4 28 -10 9 -15 45 -12 40 3 -4 8 10 12 47 14 29 0 69 8 88 17
l35 15 -32 1 c-18 0 -33 -4 -33 -8 0 -4 -8 -8 -18 -8 -14 0 -19 7 -18 28 1 20
6 28 19 28 9 0 17 5 17 10 0 6 5 10 11 10 5 0 7 -4 4 -10 -4 -6 3 -6 21 0 49
19 104 29 97 17 -4 -7 0 -8 13 -2 53 23 205 22 409 -3 51 -6 60 -10 57 -25 -3
-15 1 -17 20 -12 66 19 64 19 50 2 -7 -8 -21 -13 -32 -10 -11 3 -20 0 -20 -6
0 -6 5 -11 12 -11 6 0 23 -10 36 -22 l24 -23 -6 22 c-6 18 -4 22 8 17 9 -3 16
-1 16 5 0 6 -8 11 -17 11 -17 1 -17 2 1 15 28 21 45 0 35 -45 -5 -21 -4 -36 1
-38 18 -6 10 -22 -11 -22 -27 0 -19 -11 26 -34 24 -13 39 -16 43 -10 4 6 30
15 58 21 l51 9 21 -36 c11 -21 35 -43 51 -50 37 -15 42 -34 5 -20 -33 13 -81
13 -89 0 -10 -16 -28 -12 -21 5 4 12 -1 15 -22 13 -18 -2 -27 2 -28 12 -1 8
-2 19 -3 23 0 4 -10 3 -22 -4 -15 -8 -24 -8 -32 0 -6 6 -17 11 -23 11 -7 0 0
-12 15 -27 15 -16 32 -35 37 -43 5 -8 18 -20 29 -27 11 -6 19 -16 18 -21 -1
-5 12 -25 30 -44 28 -31 44 -63 64 -133 5 -20 0 -15 -66 63 -22 25 -56 31 -47
7 3 -8 1 -15 -5 -15 -6 0 -7 -6 -4 -12 4 -7 -1 -4 -9 6 -9 11 -16 14 -16 8 0
-7 -4 -12 -10 -12 -5 0 -10 7 -10 15 0 17 -16 21 -22 5 -2 -6 -14 -12 -27 -15
-31 -6 -73 4 -66 16 3 4 -3 14 -15 21 -11 7 -20 19 -20 27 0 9 -9 4 -24 -12
-13 -14 -27 -23 -30 -20 -3 4 -32 8 -63 10 -31 2 -61 9 -65 16 -7 11 -12 3 -9
-15 1 -7 -14 -12 -31 -9 -4 0 -5 -6 -1 -15 3 -9 1 -19 -6 -23 -12 -8 -5 -41 9
-41 5 0 12 9 15 20 10 32 32 48 59 43 14 -3 26 -9 26 -14 0 -5 9 -9 19 -9 11
0 26 -7 35 -15 8 -8 19 -15 25 -15 6 0 11 -6 11 -14 0 -8 7 -17 16 -20 8 -3
13 -10 10 -15 -3 -5 1 -14 9 -21 18 -15 19 -30 2 -30 -7 0 -18 -9 -25 -20 -8
-13 -23 -20 -42 -20 -25 0 -30 -4 -30 -24 0 -13 -7 -29 -15 -36 -9 -7 -14 -19
-11 -26 3 -9 -1 -11 -12 -7 -14 5 -15 3 -4 -8 9 -10 15 -10 24 -1 15 15 32 16
23 2 -3 -6 4 -14 17 -19 21 -7 18 -9 -19 -16 -38 -6 -41 -8 -27 -22 9 -9 26
-13 44 -11 17 3 30 1 30 -4 0 -4 -5 -8 -11 -8 -5 0 -8 -4 -4 -9 8 -15 -17 -61
-33 -61 -9 0 -12 -3 -9 -7 4 -3 3 -11 -2 -17 -19 -24 -19 -55 0 -72 15 -14 17
-19 7 -26 -17 -11 3 -24 50 -33 24 -4 38 -2 43 7 6 10 13 10 26 2 14 -9 22 -7
36 9 14 16 20 18 30 8 16 -16 -1 -26 -67 -42 -46 -11 -86 -35 -86 -50 0 -12
31 -3 42 12 7 10 8 7 5 -13 -5 -30 -3 -31 58 -28 l40 1 -26 -18 c-14 -10 -24
-24 -22 -30 3 -7 0 -13 -6 -13 -6 0 -11 -5 -11 -11 0 -7 10 -5 26 6 15 10 32
14 42 9 9 -4 20 -6 25 -6 4 1 7 -3 7 -8 0 -6 -4 -10 -9 -10 -13 0 -24 -37 -15
-51 8 -14 23 10 30 49 7 35 44 60 44 29 0 -15 37 -15 63 -1 21 12 12 21 -34
41 -21 9 -29 8 -41 -4 -11 -10 -18 -11 -22 -4 -4 6 -3 11 3 11 6 0 8 6 5 13
-6 17 70 15 91 -3 15 -13 47 1 78 35 11 11 24 19 29 17 5 -1 0 11 -12 29 -16
22 -25 27 -30 18 -13 -20 -38 -2 -60 42 -11 24 -20 48 -20 54 0 19 -48 58 -63
52 -11 -4 -13 2 -11 25 2 17 -1 37 -8 45 -15 18 10 37 28 22 6 -5 28 -10 47
-11 24 -1 37 -7 40 -18 3 -11 13 -17 28 -15 38 4 39 4 39 16 0 7 -9 9 -21 6
-17 -4 -19 -3 -10 6 17 17 13 29 -8 22 -15 -4 -20 0 -23 24 -2 17 -1 28 4 25
4 -3 8 0 8 5 0 16 19 13 37 -5 13 -13 14 -17 3 -24 -9 -6 -7 -11 9 -19 12 -7
21 -8 21 -2 0 5 9 13 21 16 24 8 18 17 -14 22 -25 4 -42 27 -46 64 -2 16 -31
-10 -31 -27 0 -8 -5 -14 -11 -14 -15 0 -1 42 20 58 9 7 15 15 14 17 -8 15 -1
35 13 35 8 0 13 -4 10 -9 -3 -5 1 -22 10 -37 l16 -29 -4 32 c-4 26 -1 31 14
30 12 -1 16 -7 13 -16 -4 -11 -3 -12 10 -1 8 7 15 18 15 26 0 7 5 16 10 19 6
4 10 3 9 -2 -6 -37 17 -36 60 1 21 18 23 19 18 3 -4 -11 -3 -16 3 -12 6 3 10
1 10 -5 0 -6 5 -8 10 -5 6 3 10 -1 10 -10 0 -11 -5 -15 -14 -12 -10 4 -13 1
-9 -10 3 -8 0 -19 -7 -23 -7 -4 -10 -12 -6 -18 8 -13 56 -22 56 -10 0 5 5 6
12 2 7 -5 5 -11 -8 -21 -16 -12 -17 -15 -4 -23 24 -15 5 -12 -26 5 -16 8 -38
15 -49 14 -17 0 -16 -2 5 -11 14 -5 39 -16 55 -24 18 -9 39 -12 50 -8 14 6 17
4 13 -8 -4 -9 -1 -21 5 -28 9 -9 5 -11 -18 -7 -16 3 -38 8 -48 12 -14 6 -16 3
-11 -11 4 -11 11 -25 17 -31 5 -7 6 -13 1 -13 -17 0 -32 -47 -20 -61 8 -9 8
-10 -1 -5 -7 4 -13 3 -13 -3 0 -6 -11 -6 -29 -1 -16 4 -32 6 -35 3 -3 -3 -16
7 -31 22 -14 16 -28 25 -33 21 -4 -4 1 -12 11 -17 9 -6 17 -17 17 -24 0 -8 7
-15 15 -15 8 0 15 -7 15 -15 0 -8 5 -15 10 -15 15 0 12 -16 -5 -33 -12 -13
-13 -17 0 -27 11 -9 19 -7 39 12 13 12 26 32 28 43 3 16 12 20 40 21 20 0 43
6 51 13 12 10 18 8 31 -11 9 -13 19 -22 21 -20 3 2 11 2 17 0 7 -3 4 -12 -10
-26 -28 -28 -13 -38 57 -33 37 2 51 0 47 -8 -4 -7 1 -11 13 -11 12 0 21 5 21
10 0 6 5 10 10 10 15 0 11 -73 -5 -94 -8 -11 -15 -30 -15 -43 0 -32 27 -83 44
-83 8 0 17 -7 20 -16 3 -8 2 -12 -4 -9 -15 10 -42 -23 -36 -43 4 -13 0 -18
-15 -19 -12 -1 -30 -10 -40 -19 -17 -15 -19 -15 -19 -1 0 16 -16 17 -37 4 -8
-5 -13 -3 -13 3 0 7 -8 9 -19 5 -21 -6 -34 15 -25 40 4 10 14 13 29 9 13 -3
32 -1 43 5 25 13 56 71 44 83 -10 10 -52 -28 -52 -48 0 -8 -4 -12 -10 -9 -5 3
-10 18 -10 33 0 19 -3 23 -11 15 -6 -6 -18 -9 -25 -6 -8 3 -14 1 -14 -3 -1 -5
-14 -24 -30 -43 -22 -26 -28 -29 -23 -12 4 14 1 21 -10 21 -18 0 -41 -26 -33
-39 3 -5 0 -23 -7 -40 -17 -39 -74 -71 -133 -74 -36 -2 -44 -5 -44 -22 0 -14
-3 -16 -8 -7 -7 10 -14 8 -33 -7 -19 -14 -37 -18 -77 -16 -37 2 -52 -1 -52
-10 0 -7 -16 -23 -36 -34 -30 -18 -35 -26 -34 -54 3 -55 -8 -75 -38 -69 -15 3
-30 10 -34 16 -10 15 -22 0 -12 -16 5 -7 10 -32 12 -55 3 -34 0 -43 -12 -43
-9 0 -16 -4 -16 -8 0 -5 -7 -9 -15 -9 -12 0 -12 3 -2 16 8 10 8 13 0 8 -15 -9
-114 14 -107 25 3 4 0 8 -6 8 -6 0 -8 5 -5 10 3 6 2 10 -4 10 -5 0 -13 -4 -16
-10 -3 -5 -1 -10 4 -10 6 0 11 -4 11 -10 0 -5 -6 -10 -13 -10 -8 0 -22 -9 -32
-20 -15 -16 -28 -20 -66 -17 -27 2 -46 1 -43 -4 2 -4 -4 -12 -13 -18 -17 -10
-16 -11 4 -17 13 -4 20 -11 16 -20 -3 -8 1 -14 11 -14 19 0 22 -30 4 -30 -7 0
-5 -5 5 -11 22 -13 51 -6 142 33 186 80 379 190 482 275 23 19 44 30 47 24 30
-48 106 -303 106 -353 0 -60 -28 -150 -59 -194 -17 -24 -26 -44 -21 -44 5 0
12 -9 15 -20 7 -23 57 -40 63 -22 2 7 8 12 14 12 6 0 8 -6 5 -14 -4 -10 0 -12
14 -9 10 3 19 0 19 -6 0 -12 22 -11 31 3 8 10 -14 33 -54 59 l-28 18 26 25
c14 13 30 24 36 24 5 0 9 5 9 11 0 6 7 8 16 5 9 -4 23 -1 30 5 8 6 23 9 34 6
11 -3 37 -1 57 5 26 7 38 7 43 -2 10 -16 30 -4 30 17 0 9 -6 13 -15 9 -8 -3
-15 -3 -15 0 0 6 53 28 63 26 4 -1 7 4 7 10 0 9 3 8 9 -1 8 -12 11 -9 16 11 4
15 15 34 26 44 20 18 27 6 7 -14 -6 -6 -9 -15 -5 -18 8 -9 37 15 37 30 0 6 9
17 20 24 11 7 19 9 18 5 -3 -17 15 -43 25 -36 20 12 65 10 60 -3 -2 -6 1 -15
8 -20 7 -4 10 -3 7 2 -3 5 1 27 8 49 8 27 13 33 13 18 1 -13 6 -23 12 -23 6 0
8 -9 4 -20 -3 -11 -3 -20 2 -20 4 0 8 -17 8 -38 0 -28 -4 -36 -15 -34 -26 6
-36 22 -20 32 8 5 11 10 5 10 -17 -1 -45 -27 -37 -35 4 -4 -3 -4 -15 -1 -18 6
-22 4 -17 -8 7 -19 9 -19 34 -4 14 9 23 9 30 2 13 -13 -19 -53 -37 -47 -7 3
-13 -2 -13 -11 0 -9 5 -16 11 -16 6 0 9 -6 6 -12 -2 -7 -9 -12 -15 -11 -14 3
-75 -59 -90 -91 -7 -15 -12 -36 -12 -47 0 -17 4 -15 27 13 40 49 156 168 165
168 5 0 8 -8 8 -18 0 -27 50 -70 109 -92 79 -30 82 -29 120 56 99 225 146 454
105 512 -17 25 -34 29 -34 8 0 -25 -27 -44 -54 -39 -21 4 -28 0 -36 -22 -7
-17 -15 -25 -24 -22 -8 3 -31 -7 -51 -23 -30 -24 -43 -28 -76 -24 -45 6 -54
-14 -17 -38 20 -13 21 -17 7 -30 -40 -41 -90 -45 -115 -9 -9 12 -8 18 5 28 14
11 14 12 -6 13 -12 0 -24 -6 -26 -12 -3 -7 -10 2 -17 19 -7 18 -16 31 -20 28
-5 -3 -11 3 -15 14 -7 22 -36 23 -70 4 -32 -17 -95 -32 -95 -22 0 5 7 9 15 9
18 0 18 5 5 31 -9 15 -7 19 5 19 9 0 27 7 40 16 13 9 29 13 35 9 8 -5 10 0 8
12 -2 11 2 20 7 21 6 0 9 -9 7 -21 -2 -17 0 -19 10 -9 7 7 11 28 9 47 -1 19 2
35 7 35 6 0 7 14 2 37 -6 23 -5 44 2 56 16 30 59 67 82 72 50 10 106 12 111 5
8 -13 56 -18 61 -6 5 14 44 19 44 6 0 -5 20 -12 44 -15 45 -7 110 -50 100 -66
-3 -5 4 -9 15 -9 12 0 21 5 21 10 0 6 -5 10 -11 10 -5 0 -7 5 -3 11 3 6 17 9
31 6 16 -3 27 1 30 10 13 34 -26 301 -61 417 -8 27 -13 53 -10 58 3 4 1 8 -3
8 -5 0 -17 24 -28 53 -10 28 -27 70 -39 92 -11 22 -21 47 -22 55 -1 8 -5 24
-9 35 l-8 20 16 -20 c14 -17 16 -18 17 -3 0 9 -4 28 -10 42 -13 34 -5 33 14
-1 15 -27 15 -27 16 -5 0 13 4 21 9 18 5 -3 12 1 15 10 9 24 8 26 -16 19 -17
-6 -20 -4 -15 9 4 10 1 16 -9 16 -9 0 -12 5 -8 13 5 8 2 7 -10 -2 -9 -8 -15
-20 -12 -27 3 -7 -1 -14 -7 -17 -9 -3 -12 6 -12 27 1 29 -2 32 -26 32 -19 0
-25 -4 -22 -14 5 -11 7 -11 14 0 7 11 11 10 19 -2 14 -21 12 -33 -2 -23 -7 4
-16 8 -20 8 -13 0 -58 77 -52 87 4 6 2 8 -4 4 -6 -3 -29 18 -54 50 -24 31 -56
70 -73 87 -16 16 -29 35 -27 41 2 6 1 8 -3 4 -4 -4 -44 26 -90 66 -45 41 -93
79 -106 86 -13 7 -26 16 -29 19 -13 17 -113 76 -195 116 -169 82 -306 124
-495 151 -87 12 -302 17 -375 7z m485 -194 c0 -5 -9 -9 -19 -9 -11 0 -27 -3
-37 -7 -11 -4 -15 -3 -10 5 4 6 -3 12 -16 14 -13 3 1 5 30 6 28 0 52 -3 52 -9z
m100 -39 c0 -5 -2 -10 -4 -10 -3 0 -8 5 -11 10 -3 6 -1 10 4 10 6 0 11 -4 11
-10z m-1210 -45 c-7 -8 -17 -15 -23 -15 -5 0 -2 9 8 20 21 23 35 19 15 -5z
m1498 -124 c12 -7 28 -9 34 -5 7 4 8 3 4 -5 -8 -12 -34 -8 -74 11 -16 8 -19
14 -10 19 7 4 15 4 18 0 3 -4 15 -13 28 -20z m-230 -43 c9 -9 12 -9 12 1 0 7
5 9 10 6 6 -3 10 -11 10 -17 0 -6 -3 -8 -7 -5 -3 4 -13 1 -22 -7 -9 -7 -27
-17 -41 -20 -19 -6 -22 -5 -10 3 12 9 13 12 1 20 -9 6 -10 11 -2 15 6 4 11 2
11 -3 0 -6 5 -11 11 -11 6 0 9 7 5 15 -7 18 5 20 22 3z m272 -95 c0 -7 9 -13
19 -13 24 0 31 -19 17 -45 -11 -20 -46 -31 -46 -15 0 5 -9 12 -21 15 -26 9
-79 63 -79 82 0 8 4 12 9 9 4 -3 17 3 27 13 18 18 20 18 46 -8 15 -14 28 -32
28 -38z m-661 -12 c-7 -2 -2 -11 12 -22 13 -10 18 -19 12 -19 -29 0 -10 -21
37 -41 52 -22 61 -41 21 -47 -16 -3 -24 2 -28 17 -3 12 -12 21 -20 21 -8 0
-35 20 -60 44 -36 36 -51 44 -74 41 -19 -3 -27 0 -23 7 4 6 21 8 40 5 25 -4
34 -2 34 8 0 11 6 11 30 2 17 -7 25 -14 19 -16z m434 -16 c4 -8 2 -17 -3 -20
-6 -4 -10 -4 -10 -1 0 2 -3 11 -6 20 -3 9 -2 16 4 16 5 0 12 -7 15 -15z m103
-1 c-4 -12 -1 -14 14 -9 19 6 25 -3 21 -28 -1 -5 3 -6 9 -2 16 10 47 -13 52
-39 5 -27 -2 -26 -35 3 -15 13 -20 13 -27 1 -6 -10 -9 -7 -12 11 -2 19 -10 24
-36 26 -29 3 -32 1 -22 -16 7 -13 7 -28 0 -45 -12 -33 -20 -33 -14 0 3 16 1
23 -6 19 -5 -3 -10 -12 -10 -18 0 -7 -12 -20 -25 -30 -26 -19 -34 -11 -12 12
10 11 9 14 -1 18 -10 4 -10 8 -1 19 6 8 15 11 20 8 5 -3 9 -1 9 5 0 14 60 81
72 81 6 0 7 -7 4 -16z m228 -53 c15 -27 14 -30 -7 -44 -16 -10 -28 -12 -40 -5
-20 11 -23 48 -3 48 8 0 16 7 20 15 8 21 14 19 30 -14z m-744 -52 c0 -6 -4 -7
-10 -4 -5 3 -10 11 -10 16 0 6 5 7 10 4 6 -3 10 -11 10 -16z m143 1 c9 -11 17
-22 17 -24 0 -2 -18 -3 -39 -2 -22 0 -36 3 -32 6 4 3 10 13 14 23 8 22 19 22
40 -3z m147 9 c0 -13 -16 -18 -38 -12 -32 8 -27 20 8 20 17 0 30 -4 30 -8z
m290 -9 c0 -5 -2 -10 -4 -10 -3 0 -8 5 -11 10 -3 6 -1 10 4 10 6 0 11 -4 11
-10z m-36 -36 c5 -13 9 -14 21 -4 10 9 15 9 15 1 0 -6 7 -11 15 -11 8 0 15 -5
15 -10 0 -6 7 -10 16 -8 10 2 19 -4 22 -12 3 -8 1 -12 -3 -8 -4 4 -13 0 -20
-9 -11 -15 -15 -14 -46 3 -33 19 -68 52 -69 67 0 14 28 7 34 -9z m-384 -33 c0
-4 -3 -11 -7 -14 -8 -9 -34 13 -28 24 6 9 35 1 35 -10z m384 -43 c-6 -9 -34 1
-34 11 0 4 3 10 6 14 8 7 33 -16 28 -25z m-400 -84 c9 -24 7 -27 -9 -10 -17
17 -19 26 -6 26 5 0 12 -7 15 -16z m546 -3 c0 -5 12 -13 27 -20 19 -9 23 -15
15 -23 -8 -8 -15 -8 -27 2 -8 7 -15 9 -15 5 0 -3 -12 3 -26 14 -15 11 -30 19
-34 16 -3 -2 -7 1 -7 8 0 8 12 11 34 9 18 -2 33 -7 33 -11z m-103 -37 c-2 -2
-12 -1 -22 3 -18 6 -18 7 1 13 17 7 33 -5 21 -16z m43 -16 c0 -5 -6 -8 -14 -8
-9 0 -12 7 -9 21 4 16 8 17 14 7 5 -7 9 -16 9 -20z m-610 -28 c0 -5 -5 -10
-11 -10 -5 0 -7 5 -4 10 3 6 8 10 11 10 2 0 4 -4 4 -10z m625 0 c-3 -5 -13
-10 -21 -10 -8 0 -12 5 -9 10 3 6 13 10 21 10 8 0 12 -4 9 -10z m45 0 c0 -5
-4 -10 -10 -10 -5 0 -10 5 -10 10 0 6 5 10 10 10 6 0 10 -4 10 -10z m-660 -40
c0 -5 -5 -10 -11 -10 -5 0 -7 5 -4 10 3 6 8 10 11 10 2 0 4 -4 4 -10z m484
-12 c-3 -4 -12 -8 -20 -8 -8 0 -14 4 -14 8 0 4 9 8 19 8 11 0 17 -4 15 -8z
m56 -10 c0 -3 -9 -6 -20 -5 -11 1 -20 5 -20 9 0 3 9 6 20 5 11 -1 20 -5 20 -9z
m40 -23 c0 -8 -4 -15 -10 -15 -5 0 -10 7 -10 15 0 8 5 15 10 15 6 0 10 -7 10
-15z m-725 -5 c3 -5 1 -10 -4 -10 -6 0 -11 5 -11 10 0 6 2 10 4 10 3 0 8 -4
11 -10z m533 -15 c-3 -3 -9 2 -12 12 -6 14 -5 15 5 6 7 -7 10 -15 7 -18z m466
0 c19 0 16 -24 -3 -30 -12 -3 -21 -11 -21 -16 0 -5 -5 -9 -10 -9 -6 0 -9 12
-6 28 2 15 5 31 5 35 1 5 7 5 14 0 6 -4 16 -8 21 -8z m-964 -35 c0 -5 -5 -10
-11 -10 -5 0 -7 5 -4 10 3 6 8 10 11 10 2 0 4 -4 4 -10z m210 -36 c0 -16 -26
-19 -35 -4 -3 6 -4 14 0 20 8 13 35 1 35 -16z m920 16 c0 -5 -4 -10 -10 -10
-5 0 -10 5 -10 10 0 6 5 10 10 10 6 0 10 -4 10 -10z m-47 -27 c-5 -12 -2 -15
10 -10 26 10 20 -11 -8 -29 -14 -9 -28 -27 -31 -40 -3 -13 -11 -25 -18 -25 -6
-1 -15 -2 -21 -4 -5 -1 -16 -3 -22 -3 -7 -1 -13 -14 -14 -29 0 -24 -2 -25 -8
-9 -11 29 -19 7 -18 -45 1 -31 -2 -45 -9 -42 -6 2 -14 -5 -17 -16 -3 -12 -9
-21 -14 -21 -17 0 -13 52 7 79 14 21 17 35 11 57 -9 33 -24 35 -29 4 -4 -27
-26 -21 -30 9 -6 36 20 82 44 79 12 -2 29 3 37 11 10 8 27 11 42 7 17 -4 25
-2 25 7 0 20 21 37 47 37 17 0 21 -4 16 -17z m-803 -69 c0 -8 5 -12 10 -9 6 3
10 1 10 -4 0 -12 -6 -13 -37 -5 -28 8 -30 29 -3 31 12 1 20 -4 20 -13z m730
-74 c0 -5 -2 -10 -4 -10 -3 0 -8 5 -11 10 -3 6 -1 10 4 10 6 0 11 -4 11 -10z
m-363 -122 c-3 -8 -6 -5 -6 6 -1 11 2 17 5 13 3 -3 4 -12 1 -19z m3 -182 c14
-26 7 -76 -11 -76 -6 0 -8 9 -4 20 5 15 3 18 -9 14 -12 -5 -16 1 -16 23 0 48
19 57 40 19z m80 -75 c5 -11 10 -24 10 -30 0 -17 -27 -13 -34 5 -16 41 4 62
24 25z m178 -52 c-2 -6 -8 -10 -13 -10 -5 0 -11 4 -13 10 -2 6 4 11 13 11 9 0
15 -5 13 -11z m-157 -31 c3 -5 12 -10 20 -12 30 -5 59 -18 59 -26 0 -4 -13
-10 -30 -12 -16 -3 -30 -2 -30 1 0 12 -56 28 -99 30 -56 2 -70 11 -43 25 24
13 114 9 123 -6z m89 -68 c0 -5 -4 -10 -10 -10 -5 0 -10 5 -10 10 0 6 5 10 10
10 6 0 10 -4 10 -10z m-31 -54 c9 -11 9 -16 0 -22 -7 -4 -15 -2 -17 4 -2 7
-10 12 -18 12 -8 0 -14 5 -14 10 0 15 36 12 49 -4z m-1022 -38 c-3 -8 -6 -5
-6 6 -1 11 2 17 5 13 3 -3 4 -12 1 -19z m1403 -73 c0 -8 -2 -15 -4 -15 -2 0
-6 7 -10 15 -3 8 -1 15 4 15 6 0 10 -7 10 -15z m-548 -29 c4 3 16 0 28 -6 31
-16 10 -34 -39 -35 -29 0 -38 4 -36 15 2 8 4 24 4 34 1 18 2 18 19 3 10 -10
21 -14 24 -11z m538 -56 c0 -5 -2 -10 -4 -10 -3 0 -8 5 -11 10 -3 6 -1 10 4
10 6 0 11 -4 11 -10z m-137 -195 c-3 -9 -8 -14 -10 -11 -3 3 -2 9 2 15 9 16
15 13 8 -4z"/>
<path d="M4026 2343 c-11 -11 -6 -23 9 -23 8 0 15 4 15 9 0 13 -16 22 -24 14z"/>
<path d="M2510 3353 c-37 -7 -43 -17 -21 -37 18 -17 20 -16 34 13 9 17 15 30
14 30 -1 -1 -13 -4 -27 -6z"/>
<path d="M2410 3290 c-13 -8 -12 -10 3 -10 9 0 17 5 17 10 0 12 -1 12 -20 0z"/>
<path d="M2641 3261 c-9 -6 -10 -11 -2 -15 13 -8 31 1 31 15 0 11 -11 11 -29
0z"/>
<path d="M2690 3240 c0 -5 9 -10 21 -10 11 0 17 5 14 10 -3 6 -13 10 -21 10
-8 0 -14 -4 -14 -10z"/>
<path d="M3090 3240 c0 -5 5 -10 10 -10 6 0 10 5 10 10 0 6 -4 10 -10 10 -5 0
-10 -4 -10 -10z"/>
<path d="M2806 3225 c-6 -18 44 -39 58 -25 8 8 6 9 -9 4 -19 -7 -19 -6 -3 12
16 18 15 19 -12 20 -16 1 -31 -4 -34 -11z"/>
<path d="M3134 3195 c0 -20 4 -34 11 -32 13 5 13 59 -1 64 -6 2 -10 -12 -10
-32z"/>
<path d="M2045 3189 c-11 -17 1 -21 15 -4 8 9 8 15 2 15 -6 0 -14 -5 -17 -11z"/>
<path d="M2140 3190 c8 -5 20 -10 25 -10 6 0 3 5 -5 10 -8 5 -19 10 -25 10 -5
0 -3 -5 5 -10z"/>
<path d="M1953 3152 c-3 -12 -12 -22 -19 -22 -8 0 -14 -4 -14 -9 0 -5 9 -7 19
-4 18 5 36 41 25 52 -3 3 -7 -5 -11 -17z"/>
<path d="M2853 3153 c9 -2 25 -2 35 0 9 3 1 5 -18 5 -19 0 -27 -2 -17 -5z"/>
<path d="M1977 3131 c-4 -17 -3 -21 5 -13 5 5 8 16 6 23 -3 8 -7 3 -11 -10z"/>
<path d="M2694 3135 c-24 -18 -7 -19 26 0 16 9 19 14 9 15 -8 0 -24 -7 -35
-15z"/>
<path d="M2788 3142 c-25 -3 -41 -22 -19 -22 5 0 7 -10 3 -22 -5 -21 -4 -22
13 -8 10 8 34 20 54 26 23 8 29 12 16 13 -12 1 -25 5 -30 9 -6 4 -22 6 -37 4z"/>
<path d="M2058 3090 c-27 -28 -48 -53 -48 -57 0 -5 5 -1 11 7 8 12 12 12 16 2
3 -9 20 2 48 34 39 42 48 65 27 63 -4 0 -28 -22 -54 -49z"/>
<path d="M2952 3107 c-27 -29 -28 -43 -2 -50 22 -6 27 12 8 31 -9 9 -8 12 4
12 17 0 43 -21 51 -42 4 -10 8 -9 16 2 8 11 7 16 -5 18 -10 2 -13 10 -9 23 4
10 2 19 -4 19 -5 0 -16 2 -23 5 -8 3 -24 -5 -36 -18z"/>
<path d="M2117 3090 c-3 -11 -2 -20 3 -20 4 0 10 9 13 20 3 11 2 20 -3 20 -4
0 -10 -9 -13 -20z"/>
<path d="M2300 3065 c0 -10 -10 -15 -29 -15 -37 0 -49 -17 -27 -38 16 -16 19
-15 36 6 10 12 20 17 22 12 2 -6 8 3 15 20 9 25 9 30 -3 30 -8 0 -14 -7 -14
-15z m-23 -41 c-3 -3 -12 -4 -19 -1 -8 3 -5 6 6 6 11 1 17 -2 13 -5z"/>
<path d="M3235 3070 c4 -6 11 -8 16 -5 14 9 11 15 -7 15 -8 0 -12 -5 -9 -10z"/>
<path d="M3118 3063 c7 -3 16 -2 19 1 4 3 -2 6 -13 5 -11 0 -14 -3 -6 -6z"/>
<path d="M2095 3040 c-3 -5 -1 -10 4 -10 6 0 11 5 11 10 0 6 -2 10 -4 10 -3 0
-8 -4 -11 -10z"/>
<path d="M2361 3032 c0 -4 4 -16 8 -27 8 -19 8 -19 19 2 10 18 9 22 -8 26 -11
3 -20 2 -19 -1z"/>
<path d="M2410 3031 c0 -6 5 -13 10 -16 6 -3 10 1 10 9 0 9 -4 16 -10 16 -5 0
-10 -4 -10 -9z"/>
<path d="M3180 3020 c0 -5 4 -10 9 -10 6 0 13 5 16 10 3 6 -1 10 -9 10 -9 0
-16 -4 -16 -10z"/>
<path d="M1976 2999 c-11 -10 -17 -21 -14 -24 2 -3 15 6 28 20 27 29 14 33
-14 4z"/>
<path d="M2770 3010 c0 -5 7 -10 16 -10 8 0 12 5 9 10 -3 6 -10 10 -16 10 -5
0 -9 -4 -9 -10z"/>
<path d="M1782 2998 c-7 -7 -12 -19 -11 -27 0 -14 1 -14 6 -1 4 8 13 20 22 27
9 7 11 13 6 13 -6 0 -16 -5 -23 -12z"/>
<path d="M2726 2994 c-11 -8 -30 -14 -44 -14 -13 0 -20 -4 -17 -10 3 -5 1 -10
-5 -10 -6 0 -9 -4 -5 -10 3 -5 12 -7 20 -3 11 4 15 -2 15 -20 0 -27 -20 -40
-47 -30 -10 3 -15 3 -11 -2 4 -4 1 -17 -7 -29 -21 -29 -19 -46 5 -46 11 0 20
5 20 10 0 6 -4 10 -10 10 -5 0 -10 3 -10 8 0 4 16 8 36 9 20 1 42 7 48 14 8 9
8 10 -1 5 -7 -4 -13 -3 -13 2 0 10 44 32 65 32 25 0 16 18 -12 25 l-28 7 24
19 c13 10 19 19 13 19 -6 0 -12 6 -14 14 -3 13 -6 13 -22 0z"/>
<path d="M1393 2993 c9 -2 25 -2 35 0 9 3 1 5 -18 5 -19 0 -27 -2 -17 -5z"/>
<path d="M4300 2976 c0 -8 4 -17 9 -20 5 -4 7 3 4 14 -6 23 -13 26 -13 6z"/>
<path d="M2193 2961 c1 -12 7 -21 14 -21 17 0 16 15 -1 30 -12 9 -15 8 -13 -9z"/>
<path d="M1912 2956 c-31 -18 -38 -26 -21 -26 8 0 25 9 39 20 28 22 17 25 -18
6z"/>
<path d="M1401 2924 c0 -11 3 -14 6 -6 3 7 2 16 -1 19 -3 4 -6 -2 -5 -13z"/>
<path d="M1925 2930 c-4 -6 -22 -10 -39 -9 -26 3 -39 -4 -64 -29 -17 -18 -40
-32 -50 -32 -10 0 -24 -6 -31 -12 -7 -7 -1 7 14 32 27 44 27 44 4 25 -44 -37
-54 -50 -102 -130 -26 -44 -47 -75 -47 -70 0 6 -4 5 -8 -2 -4 -6 -20 -15 -36
-19 -21 -5 -27 -4 -22 5 4 6 1 11 -8 11 -8 0 -16 -4 -18 -10 -2 -5 -22 -1 -45
10 -28 12 -60 18 -97 16 -30 -1 -53 1 -50 6 9 14 -9 9 -28 -9 -18 -16 -21 -16
-49 15 -26 27 -49 35 -49 16 0 -3 4 -3 9 0 5 3 15 -2 22 -11 12 -15 12 -16 -3
-10 -10 3 -18 2 -18 -3 0 -5 8 -11 18 -13 13 -4 11 -5 -5 -6 -13 0 -23 4 -23
10 0 14 -127 6 -141 -8 -7 -7 -1 -21 16 -42 l27 -31 -24 -9 c-12 -6 -18 -10
-11 -10 7 -1 36 -12 65 -25 29 -13 78 -29 108 -37 30 -7 58 -15 63 -19 4 -3
-13 -17 -39 -29 l-45 -23 28 -15 c15 -8 30 -17 33 -21 3 -4 16 -15 30 -24 14
-10 44 -31 68 -48 23 -16 47 -30 52 -30 5 0 14 -9 20 -20 14 -26 30 -25 30 2
0 12 3 19 6 16 3 -3 1 -30 -4 -59 -6 -29 -8 -59 -5 -66 4 -10 37 -12 143 -10
108 1 142 -1 152 -12 7 -8 8 -11 3 -8 -6 3 -17 2 -25 -4 -11 -6 -5 -9 20 -10
19 -1 27 -3 18 -6 -10 -2 -18 -10 -18 -16 0 -7 -5 -6 -11 3 -9 12 -10 12 -7 1
3 -9 18 -15 41 -16 20 0 49 -10 66 -23 35 -26 41 -27 41 -9 0 7 -13 26 -30 42
-16 15 -27 32 -23 38 3 5 8 4 13 -2 4 -7 17 -13 28 -14 12 -1 22 -4 22 -8 0
-7 80 -22 87 -16 2 3 -2 11 -9 18 -7 8 -21 26 -31 41 -17 28 -35 32 -49 13 -5
-5 -6 7 -3 27 2 21 -2 49 -9 62 -13 26 -10 86 4 86 4 0 11 11 14 25 4 14 11
25 16 25 6 0 19 14 29 31 15 24 17 38 10 62 -11 39 -11 40 1 32 6 -3 10 4 10
16 0 18 -3 20 -12 11 -7 -7 -19 -12 -27 -12 -7 0 5 14 28 30 23 17 41 36 40
43 -3 26 2 35 21 40 27 7 37 -11 45 -75 5 -47 35 -70 35 -27 0 19 2 20 16 8
15 -12 16 -10 9 21 -4 19 -12 40 -17 47 -5 7 -9 31 -8 55 3 63 2 64 -26 77
-16 7 -24 17 -20 26 6 18 -10 29 -26 18 -7 -4 -23 -6 -35 -5 -12 2 -30 -1 -40
-7 -15 -8 -10 -10 23 -11 29 0 41 -4 41 -15 0 -18 -17 -20 -17 -2 0 6 -9 1
-20 -13 -10 -14 -22 -21 -26 -17 -4 4 -2 7 4 7 7 0 12 5 12 10 0 17 -19 11
-42 -12 -15 -15 -20 -17 -15 -5 10 25 -8 29 -36 7 -14 -11 -31 -20 -39 -20
-15 0 -128 -113 -128 -127 0 -6 -8 -17 -18 -26 -17 -15 -19 -14 -29 13 -7 18
-8 32 -2 36 5 3 7 10 4 15 -4 5 -3 14 1 20 5 8 8 8 14 0 4 -7 14 2 25 23 17
32 32 41 75 51 8 2 16 8 18 14 2 5 19 30 38 55 19 25 34 50 34 55 0 6 6 11 13
11 16 1 52 28 45 36 -3 3 -9 0 -13 -6z m-163 -152 c-7 -7 -12 -8 -12 -2 0 14
12 26 19 19 2 -3 -1 -11 -7 -17z m-452 -98 c0 -5 -4 -10 -10 -10 -5 0 -10 5
-10 10 0 6 5 10 10 10 6 0 10 -4 10 -10z m660 0 c0 -5 -4 -10 -10 -10 -5 0
-10 5 -10 10 0 6 5 10 10 10 6 0 10 -4 10 -10z m-35 -40 c-3 -5 -14 -10 -23
-10 -15 0 -15 2 -2 10 20 13 33 13 25 0z m-80 -60 c-3 -5 -12 -7 -20 -3 -21 7
-19 13 6 13 11 0 18 -4 14 -10z m56 -43 c-16 -16 -26 0 -10 19 9 11 15 12 17
4 2 -6 -1 -17 -7 -23z m-221 8 c-7 -9 -15 -13 -19 -10 -3 3 1 10 9 15 21 14
24 12 10 -5z m168 -67 c-2 -13 -11 -32 -21 -42 -9 -11 -16 -27 -15 -35 2 -11
-4 -15 -19 -14 -24 3 -23 -11 5 -55 13 -21 13 -22 -4 -16 -18 5 -17 4 1 -11
14 -13 16 -19 7 -22 -10 -4 -10 -8 -1 -19 14 -17 8 -27 -13 -19 -10 4 -14 14
-11 26 3 10 1 19 -3 19 -5 0 -10 25 -11 55 -1 41 2 55 12 55 19 0 41 40 23 41
-10 0 -10 2 0 6 6 2 9 10 6 15 -4 7 -2 8 4 4 6 -3 16 3 22 14 14 26 22 25 18
-2z m-93 -28 c-3 -5 -12 -10 -18 -10 -7 0 -6 4 3 10 19 12 23 12 15 0z m-95
-14 c0 -7 -11 -21 -25 -30 -22 -14 -25 -15 -25 -1 0 8 6 15 14 15 8 0 16 7 20
15 7 19 16 19 16 1z m63 -6 c3 -11 1 -18 -3 -15 -11 7 -32 -30 -23 -39 4 -3
17 1 30 9 13 9 23 11 23 6 0 -5 -10 -13 -21 -16 -18 -6 -21 -13 -16 -44 3 -20
8 -45 12 -56 4 -11 3 -15 -2 -9 -19 25 -44 24 -70 -4 -25 -26 -25 -26 -18 -3
5 17 4 21 -5 16 -6 -4 -10 -18 -7 -31 6 -31 2 -30 -15 4 -14 27 -16 87 -4 100
4 3 9 -4 13 -16 4 -18 8 -20 19 -11 8 6 14 18 14 26 0 8 8 29 17 46 35 64 47
71 56 37z m157 -230 c0 -5 -2 -10 -4 -10 -3 0 -8 5 -11 10 -3 6 -1 10 4 10 6
0 11 -4 11 -10z"/>
<path d="M1685 2349 c-11 -17 1 -21 15 -4 8 9 8 15 2 15 -6 0 -14 -5 -17 -11z"/>
<path d="M2133 2896 c-9 -11 -8 -15 8 -19 14 -4 19 0 19 14 0 22 -10 24 -27 5z"/>
<path d="M2465 2900 c-3 -5 -1 -10 4 -10 6 0 11 5 11 10 0 6 -2 10 -4 10 -3 0
-8 -4 -11 -10z"/>
<path d="M16 2875 c-6 -12 -11 -612 -14 -1447 l-4 -1428 3002 0 3002 0 -4
1428 c-3 1083 -6 1432 -15 1447 -11 17 -13 9 -14 -50 -2 -69 -2 -69 -9 -20
l-6 50 -7 -35 c-4 -19 -8 -51 -10 -70 -2 -19 -5 3 -7 50 -2 47 -5 70 -7 53
l-4 -33 -640 0 c-637 0 -639 0 -639 20 0 19 -4 20 -37 14 -49 -9 -51 -11 -19
-23 14 -6 26 -18 26 -27 0 -11 5 -14 16 -10 13 5 15 2 11 -15 -10 -38 9 -69
42 -69 40 0 71 -13 104 -44 15 -14 34 -26 42 -26 8 0 17 -4 20 -10 3 -5 17
-10 29 -10 13 0 34 -8 47 -17 25 -18 42 -30 91 -61 29 -18 39 -48 13 -38 -19
7 -47 -3 -39 -15 3 -5 -2 -9 -11 -9 -28 0 -76 -42 -69 -62 11 -35 -5 -54 -56
-67 -28 -7 -50 -17 -50 -22 0 -5 5 -9 10 -9 6 0 10 -18 10 -40 0 -22 -4 -40
-10 -40 -5 0 -10 -18 -10 -40 0 -29 4 -40 15 -40 8 0 15 -8 15 -18 0 -23 19
-42 42 -42 10 0 18 -4 18 -10 0 -5 8 -10 18 -10 9 0 31 -11 47 -25 25 -21 28
-26 15 -35 -12 -8 -13 -12 -2 -19 8 -4 13 -11 12 -15 -6 -25 14 -65 36 -70 21
-6 24 -12 24 -56 0 -45 -2 -50 -22 -50 -43 0 -66 -12 -72 -36 -6 -21 -47 -50
-66 -46 -3 0 -6 -8 -6 -18 0 -10 4 -16 8 -14 4 3 10 -7 14 -21 6 -24 64 -75
74 -65 3 3 6 -7 8 -23 2 -15 7 -25 12 -22 19 12 15 -48 -7 -101 -22 -54 -22
-61 -8 -89 8 -16 15 -26 15 -21 0 5 9 -1 19 -13 11 -13 17 -29 14 -37 -3 -8
-1 -14 4 -14 5 0 8 -13 5 -29 -4 -32 -29 -48 -45 -32 -7 7 -5 12 6 17 15 5 14
9 -7 25 -14 11 -28 28 -31 39 -5 16 -15 20 -51 20 -24 0 -44 -4 -44 -10 0 -5
-7 -10 -15 -10 -10 0 -7 -8 10 -26 29 -31 31 -49 9 -71 -16 -17 -23 -11 -60
47 -22 36 -86 55 -125 38 -16 -7 -29 -19 -29 -27 0 -11 -4 -11 -22 1 -20 14
-24 13 -40 -6 -18 -21 -18 -21 -33 -2 -12 16 -18 17 -27 8 -7 -7 -21 -12 -33
-13 -32 -2 37 -16 185 -39 74 -11 136 -22 137 -24 2 -1 -4 -25 -12 -52 -13
-44 -20 -116 -9 -87 3 7 12 9 21 6 12 -5 14 -3 8 8 -5 8 1 6 13 -4 20 -18 20
-18 15 2 -7 26 21 29 35 5 8 -15 10 -15 15 1 5 10 13 14 25 11 41 -13 142 95
109 116 -8 5 -9 8 0 8 7 0 9 9 5 23 -5 20 -4 21 14 7 57 -43 73 -78 69 -145
-5 -78 -108 -133 -258 -136 -9 0 -15 -5 -11 -11 4 -6 -3 -5 -16 2 -12 6 -24 9
-27 6 -8 -8 34 -62 70 -90 l32 -25 -80 26 c-60 19 -108 27 -190 30 -97 4 -127
1 -252 -26 l-142 -32 -53 27 c-67 34 -164 108 -180 137 -6 12 -17 39 -23 61
l-11 38 -28 -25 c-19 -18 -26 -32 -22 -45 4 -13 -3 -25 -23 -40 -23 -17 -29
-29 -28 -56 1 -25 5 -32 16 -28 9 3 12 1 7 -6 -11 -19 -33 -14 -51 11 l-17 22
7 -22 c7 -27 -7 -30 -29 -7 -31 30 -15 -4 17 -37 20 -22 40 -33 53 -31 12 2
24 -4 27 -12 5 -12 -1 -16 -23 -16 -32 0 -43 -26 -15 -36 21 -9 19 -32 -5 -39
-11 -3 -20 -15 -20 -25 0 -10 -9 -28 -20 -41 -17 -21 -21 -22 -31 -9 -9 13
-10 13 -6 -2 4 -10 -1 -18 -14 -21 -10 -3 -19 -2 -19 3 0 13 -73 -13 -103 -36
-30 -24 -36 -39 -11 -30 9 3 12 2 9 -5 -4 -5 -16 -7 -27 -3 -13 4 -18 2 -14
-4 11 -18 -94 -51 -151 -46 -28 2 -65 -1 -81 -5 -24 -7 -34 -5 -46 8 -8 9 -23
18 -33 19 -10 1 -27 3 -38 4 -11 2 -19 -2 -18 -9 1 -6 -4 -14 -13 -17 -12 -4
-12 -2 -4 14 6 11 6 21 1 24 -5 4 -12 0 -14 -6 -4 -10 -6 -10 -6 0 -1 6 -8 12
-16 12 -8 0 -15 4 -15 9 0 5 10 9 23 9 51 0 88 6 93 13 2 5 10 6 17 3 7 -2 27
8 45 24 29 26 38 29 85 24 30 -3 48 -1 44 4 -5 5 -42 10 -83 11 -58 1 -74 -2
-74 -13 0 -14 -21 -18 -94 -14 -22 1 -42 -4 -46 -11 -9 -14 -150 -22 -150 -8
0 5 -13 9 -30 9 -16 0 -30 -4 -30 -9 0 -10 -51 -21 -64 -14 -5 4 -57 7 -115 9
-58 1 -97 0 -87 -3 15 -4 16 -7 5 -13 -10 -7 -6 -12 16 -20 20 -7 30 -8 35 0
4 6 16 0 30 -15 13 -14 30 -25 37 -25 8 0 16 -7 19 -15 4 -10 13 -13 25 -10
11 4 26 0 35 -9 8 -9 30 -16 47 -15 l32 1 -27 11 c-33 13 -37 32 -5 23 12 -3
27 -6 33 -6 5 0 19 -8 30 -18 26 -25 79 -42 127 -42 64 0 37 -10 -36 -13 -37
-2 -67 1 -67 5 0 4 -8 8 -17 8 -15 0 -16 -2 -3 -10 11 -7 6 -10 -20 -9 -19 0
-29 3 -22 6 16 6 6 23 -14 23 -8 0 -12 -4 -9 -10 3 -5 0 -7 -8 -4 -8 3 -18 0
-22 -6 -4 -6 -21 -8 -38 -6 -18 3 -69 10 -114 17 -46 6 -81 15 -78 19 3 4 -14
10 -37 14 -49 8 -45 16 12 20 26 2 37 0 28 -5 -9 -6 -3 -9 17 -9 23 0 27 3 15
10 -12 8 -12 12 -2 18 9 6 6 12 -12 20 -19 8 -24 8 -22 -1 1 -7 1 -9 -1 -4 -3
4 -12 7 -21 7 -14 0 -14 2 -3 9 10 6 6 11 -15 19 -18 6 -22 11 -11 11 9 1 17
6 17 11 0 15 -40 16 -111 4 -22 -3 -39 -2 -43 5 -4 6 -2 11 4 11 14 0 34 20
43 42 5 15 19 17 99 14 83 -3 90 -2 63 10 -16 7 -36 13 -42 14 -12 0 -17 13
-14 33 0 4 -4 7 -10 7 -5 0 -8 4 -4 10 3 5 13 7 23 4 14 -5 15 -4 2 5 -20 14
-50 -14 -45 -42 4 -21 4 -21 -10 -3 -8 10 -12 22 -10 26 9 14 -43 51 -80 57
-32 5 -37 4 -32 -9 4 -11 -1 -18 -14 -21 -24 -6 -36 11 -19 26 10 10 11 8 6
-8 -6 -16 -5 -17 5 -8 10 10 9 16 -1 28 -12 14 -11 18 1 26 20 12 32 11 23 -3
-5 -8 0 -9 14 -6 12 4 22 2 22 -3 0 -5 4 -9 10 -9 5 0 9 3 9 8 -3 19 2 22 16
8 18 -18 20 -30 3 -20 -10 5 -10 4 -1 -6 10 -11 15 -11 28 0 12 10 15 10 15
-4 0 -9 -6 -16 -12 -16 -9 0 -8 -4 2 -10 22 -14 30 -12 24 5 -4 9 0 15 10 15
9 0 16 4 16 10 0 6 9 6 26 0 32 -12 47 -13 40 -1 -10 15 24 22 47 9 l22 -12
-25 -7 c-17 -5 -10 -6 20 -4 25 2 44 8 43 13 -2 7 9 7 30 2 54 -14 117 -19
117 -9 0 5 -19 10 -42 10 -24 1 -35 3 -25 6 9 2 17 9 17 14 0 6 3 8 8 6 10 -7
32 19 24 28 -4 4 3 4 16 0 17 -5 23 -3 21 7 -1 7 -1 22 0 32 1 18 2 18 19 3
10 -10 29 -17 43 -17 23 1 23 1 5 15 -26 20 -17 26 20 16 16 -5 22 -10 15 -10
-11 -1 -12 -4 -4 -12 9 -9 18 -8 37 5 14 9 37 16 51 16 38 0 26 24 -13 28 -43
4 -41 22 2 22 26 0 36 -5 41 -19 4 -13 12 -18 21 -14 11 4 12 9 5 16 -6 6 -11
15 -11 20 0 5 7 2 15 -7 8 -8 12 -21 9 -30 -6 -17 35 -32 60 -23 12 5 13 11 3
38 -9 25 -9 33 1 36 17 6 15 23 -4 23 -22 0 -13 32 11 37 11 2 37 4 58 3 24 0
36 3 33 9 -4 6 -14 8 -24 5 -14 -5 -14 -4 -2 4 8 5 26 9 40 7 14 -1 28 3 33 9
5 8 10 6 16 -4 9 -12 15 -12 46 -1 28 10 39 10 51 0 12 -9 20 -9 42 0 l27 13
-28 14 c-15 8 -37 14 -50 13 -40 -4 -58 1 -51 12 4 8 1 8 -12 1 -36 -19 -87
16 -64 43 7 8 9 15 4 15 -5 0 -2 5 6 10 13 9 12 13 -8 29 -13 12 -20 25 -16
35 10 26 -21 29 -63 6 -50 -28 -89 -54 -169 -115 -114 -86 -104 -81 -104 -51
0 15 4 25 8 22 4 -2 14 -1 22 5 12 7 10 9 -7 9 -14 0 -29 14 -47 43 -36 60
-64 90 -76 82 -15 -9 -12 -62 3 -77 12 -10 11 -18 -6 -45 -17 -29 -17 -33 -3
-33 18 0 22 -15 6 -25 -5 -3 -7 -23 -5 -45 l5 -39 -57 -11 c-103 -22 -250 -29
-451 -21 -22 1 -21 3 16 49 22 26 52 71 67 99 30 59 45 133 26 133 -7 0 -9 -4
-6 -10 3 -5 1 -10 -4 -10 -16 0 -14 11 6 32 21 24 9 36 -15 15 -10 -10 -22
-14 -27 -10 -4 5 -5 3 -1 -4 3 -6 2 -14 -4 -18 -6 -4 -7 -11 -4 -17 4 -6 0
-14 -7 -19 -8 -4 -16 -3 -20 3 -4 6 -10 2 -14 -11 -6 -20 -49 -31 -57 -13 -8
17 -64 40 -78 32 -8 -5 -23 -7 -32 -4 -14 4 -16 1 -11 -13 6 -15 5 -16 -9 -3
-9 8 -14 17 -12 19 2 2 -13 14 -32 27 -27 19 -44 23 -74 19 -34 -4 -37 -2 -33
15 3 11 11 16 19 13 8 -3 11 -9 8 -14 -3 -5 0 -9 5 -9 6 0 12 5 12 10 1 6 2
16 3 23 3 26 -67 74 -102 68 -7 -1 -15 5 -18 14 -3 8 -12 15 -20 15 -8 0 -14
4 -14 9 0 5 -12 12 -27 16 -15 3 -38 14 -52 24 -14 10 -40 23 -58 30 -17 7
-34 19 -37 27 -3 8 -20 14 -41 14 -19 0 -36 5 -36 10 -1 6 -2 15 -3 20 -2 16
-27 29 -43 23 -11 -5 -11 -9 1 -29 14 -21 14 -23 -4 -29 -11 -4 -20 -11 -20
-16 0 -20 -39 16 -44 41 -3 19 -16 33 -41 44 -19 10 -33 21 -31 25 3 4 -5 7
-17 7 -12 -1 -22 5 -23 14 0 8 -2 23 -2 33 -2 13 -11 17 -42 17 -22 0 -40 -4
-40 -10 0 -18 71 -223 92 -265 11 -22 37 -56 58 -75 20 -19 45 -51 55 -70 10
-19 35 -52 56 -74 22 -21 40 -44 40 -50 1 -6 2 -16 3 -23 1 -14 82 -103 93
-103 5 0 21 -20 36 -46 15 -25 31 -42 37 -39 5 3 16 -7 24 -22 8 -15 25 -38
38 -49 40 -37 132 -81 165 -78 24 1 32 -3 37 -19 4 -17 8 -19 17 -10 9 9 17 8
35 -4 13 -8 28 -12 34 -8 5 3 10 0 10 -8 0 -16 32 -40 70 -52 14 -4 34 -14 45
-22 19 -14 17 -15 -17 -10 -21 3 -40 1 -43 -4 -4 -5 0 -9 7 -9 10 0 9 -3 -2
-10 -12 -7 -10 -11 10 -19 23 -9 24 -10 3 -10 -27 -1 -152 64 -259 135 -95 63
-234 183 -287 247 -20 25 -42 45 -49 44 -32 -1 -49 4 -43 13 3 5 12 7 20 3 11
-4 13 -1 9 11 -4 9 -9 15 -12 12 -2 -3 -20 1 -40 10 -19 8 -37 12 -40 10 -2
-3 -14 9 -26 27 -22 33 -60 47 -79 28 -7 -7 -14 -5 -23 7 -18 23 -17 32 1 32
10 0 15 10 15 30 0 30 -13 40 -25 19 -5 -6 -13 -3 -22 10 -8 12 -21 21 -29 21
-19 0 -18 16 1 24 8 3 15 11 15 18 0 9 -3 9 -10 -2 -7 -12 -12 -12 -22 -2 -9
9 -9 12 1 12 9 0 8 6 -3 22 -9 12 -16 30 -16 40 0 9 -10 23 -22 29 -13 7 -25
15 -28 18 -14 18 -86 52 -101 48 -10 -3 -21 0 -24 7 -3 8 -7 8 -11 -1 -4 -9
-15 -5 -39 13 -44 33 -95 41 -95 14 0 -27 -30 -40 -81 -34 -24 3 -63 7 -85 8
-23 1 -55 11 -70 22 -16 10 -40 21 -53 24 -32 7 -36 23 -8 35 23 11 71 11 124
0 24 -5 36 -2 52 14 25 25 26 35 6 55 -22 22 -18 36 9 36 29 0 44 18 22 26
-22 8 -20 36 4 64 16 18 23 20 34 11 11 -9 15 -9 19 1 4 10 6 10 6 1 1 -21 21
-15 21 6 0 13 6 18 18 16 9 -1 12 0 5 2 -21 7 -23 34 -5 58 9 14 22 23 28 20
7 -2 10 4 7 15 -3 11 -25 26 -56 37 -41 15 -52 23 -50 38 1 11 0 14 -3 8 -11
-24 -24 -13 -22 17 2 23 8 32 25 36 13 4 21 10 18 14 -9 15 6 38 31 44 14 4
24 14 24 25 0 20 24 44 54 55 17 6 13 12 -30 42 -27 20 -61 43 -76 52 -16 9
-28 22 -28 29 0 7 -4 12 -9 10 -5 -1 -17 7 -26 18 -16 20 -16 19 -9 -5 4 -14
11 -26 15 -28 5 -2 9 -10 9 -19 0 -18 -23 -12 -100 27 -111 56 -189 158 -190
248 0 23 -4 42 -10 42 -5 0 -12 11 -16 24 -3 14 -12 27 -20 30 -17 7 -19 36
-1 37 6 1 1 4 -12 8 -26 7 -37 32 -46 109 -10 82 9 77 -310 74 l-284 -3 -4 33
c-2 18 -5 -5 -7 -52 l-3 -85 -7 63 c-9 78 -19 91 -22 26 -1 -42 -2 -40 -7 21
-5 53 -8 65 -15 50z m5064 -355 c0 -5 -5 -10 -11 -10 -5 0 -7 5 -4 10 3 6 8
10 11 10 2 0 4 -4 4 -10z m-3343 -1082 c4 10 9 9 24 -4 20 -18 26 -54 9 -54
-5 0 -10 5 -10 10 0 6 -8 10 -18 10 -11 0 -24 11 -30 25 -16 36 -14 44 4 20
12 -15 18 -16 21 -7z m-69 -13 c-3 -3 -9 2 -12 12 -6 14 -5 15 5 6 7 -7 10
-15 7 -18z m156 -44 c3 -5 -1 -11 -9 -15 -9 -3 -15 0 -15 9 0 16 16 20 24 6z
m85 -15 c-3 -3 -16 -2 -29 1 -22 6 -22 7 -4 14 18 6 43 -5 33 -15z m-225 -12
c3 -8 2 -12 -4 -9 -6 3 -10 10 -10 16 0 14 7 11 14 -7z m186 -8 c0 -3 -4 -8
-10 -11 -5 -3 -10 -1 -10 4 0 6 5 11 10 11 6 0 10 -2 10 -4z m-72 -24 c6 -18
-15 -14 -22 4 -4 10 -1 14 6 12 6 -2 14 -10 16 -16z m82 -23 c0 -6 -4 -7 -10
-4 -5 3 -10 11 -10 16 0 6 5 7 10 4 6 -3 10 -11 10 -16z m-20 -19 c0 -4 3 -17
6 -27 4 -12 -2 -9 -20 10 -31 34 -34 52 -6 37 11 -6 20 -15 20 -20z m250 20
c0 -5 -4 -10 -10 -10 -5 0 -10 5 -10 10 0 6 5 10 10 10 6 0 10 -4 10 -10z
m-320 -20 c0 -5 -2 -10 -4 -10 -3 0 -8 5 -11 10 -3 6 -1 10 4 10 6 0 11 -4 11
-10z m33 -14 c6 -14 0 -26 -13 -26 -3 0 -6 9 -6 20 0 23 11 27 19 6z m197 -14
c0 -15 -2 -15 -10 -2 -13 20 -13 33 0 25 6 -3 10 -14 10 -23z m44 4 c24 -12
24 -14 8 -18 -12 -3 -23 2 -31 13 -13 23 -11 23 23 5z m-56 -73 c11 -11 11
-13 0 -13 -20 0 -88 62 -88 80 0 8 15 0 37 -21 20 -18 43 -40 51 -46z m-118
37 c0 -5 -2 -10 -4 -10 -3 0 -8 5 -11 10 -3 6 -1 10 4 10 6 0 11 -4 11 -10z
m-90 -4 c0 -3 -4 -8 -10 -11 -5 -3 -10 -1 -10 4 0 6 5 11 10 11 6 0 10 -2 10
-4z m369 -12 c18 -9 31 -18 29 -20 -8 -7 -62 13 -66 24 -5 16 -1 15 37 -4z
m-19 -50 c0 -8 11 -14 26 -14 23 0 25 -3 19 -27 -5 -23 -4 -25 9 -14 11 9 16
10 16 2 0 -6 -4 -12 -10 -12 -20 -3 -25 -4 -37 -12 -8 -5 -23 0 -38 10 -31 23
-32 35 -2 29 12 -2 31 0 42 5 19 7 19 8 -1 8 -12 1 -29 12 -38 26 -20 31 -21
41 -1 25 8 -7 15 -19 15 -26z m171 7 l31 -19 -28 1 c-27 2 -44 13 -44 30 0 11
6 9 41 -12z m1070 6 c-7 -7 -14 -8 -21 -1 -6 6 -2 10 12 11 16 2 18 -1 9 -10z
m39 -1 c0 -3 -4 -8 -10 -11 -5 -3 -10 -1 -10 4 0 6 5 11 10 11 6 0 10 -2 10
-4z m-1315 -26 c-10 -11 -20 -18 -23 -16 -5 6 21 35 32 36 5 0 1 -9 -9 -20z
m145 -30 c6 0 8 -5 5 -10 -4 -6 -11 -8 -16 -4 -5 3 -9 2 -8 -3 5 -31 -5 -30
-11 2 -9 45 -1 70 11 37 5 -12 13 -22 19 -22z m30 10 c0 -5 -2 -10 -4 -10 -3
0 -8 5 -11 10 -3 6 -1 10 4 10 6 0 11 -4 11 -10z m109 -56 c1 -7 -16 -15 -36
-19 -21 -4 -44 -11 -50 -17 -9 -7 -13 -7 -13 1 0 6 -6 11 -14 11 -7 0 -20 8
-27 17 -12 15 -12 16 4 10 9 -3 17 -2 17 4 0 6 5 7 11 3 7 -4 30 -9 52 -11 33
-3 38 0 33 13 -3 9 -3 21 1 27 6 10 21 -15 22 -39z m-49 16 c0 -5 -9 -6 -20
-3 -11 3 -20 9 -20 13 0 5 9 6 20 3 11 -3 20 -9 20 -13z m-240 -14 c0 -8 9
-18 20 -21 11 -3 20 -11 20 -17 0 -5 7 -8 14 -5 10 4 13 1 9 -8 -5 -16 -11
-14 -55 18 -32 24 -43 47 -23 47 8 0 15 -6 15 -14z m100 -16 c0 -5 -2 -10 -4
-10 -3 0 -8 5 -11 10 -3 6 -1 10 4 10 6 0 11 -4 11 -10z m264 -15 c3 -8 -2
-12 -12 -11 -9 2 -18 10 -20 19 -4 20 24 13 32 -8z m-84 -5 c12 -8 11 -10 -7
-10 -13 0 -23 5 -23 10 0 13 11 13 30 0z m-98 -48 c-10 -3 -10 -7 -1 -18 14
-17 -2 -19 -19 -2 -20 20 -14 37 10 30 13 -3 17 -7 10 -10z m-321 -19 c7 -16
15 -31 17 -35 6 -13 -36 -9 -44 4 -4 6 -8 22 -10 35 -3 32 20 29 37 -4z m-228
10 c-7 -2 -19 -2 -25 0 -7 3 -2 5 12 5 14 0 19 -2 13 -5z m445 -10 c-2 -10
-14 -20 -27 -21 -15 -3 -21 0 -16 8 4 6 13 9 21 6 8 -3 11 0 7 10 -3 7 0 14 7
14 6 0 10 -8 8 -17z m262 7 c0 -5 -2 -10 -4 -10 -3 0 -8 5 -11 10 -3 6 -1 10
4 10 6 0 11 -4 11 -10z m-204 -32 c4 -7 3 -8 -4 -4 -7 4 -12 2 -12 -5 0 -7 -3
-10 -6 -6 -6 5 3 27 11 27 2 0 7 -5 11 -12z m-166 -34 c0 -14 -3 -14 -15 -4
-8 7 -15 14 -15 16 0 2 7 4 15 4 8 0 15 -7 15 -16z m90 7 c0 -5 -9 -7 -20 -4
-11 3 -20 7 -20 9 0 2 9 4 20 4 11 0 20 -4 20 -9z m1777 3 c-3 -3 -12 -4 -19
-1 -8 3 -5 6 6 6 11 1 17 -2 13 -5z m-1736 -13 c-8 -5 -10 -14 -5 -22 6 -12 5
-12 -9 0 -23 19 -21 31 6 31 16 0 18 -3 8 -9z m599 -33 c0 -6 -6 -5 -15 2 -8
7 -15 14 -15 16 0 2 7 1 15 -2 8 -4 15 -11 15 -16z m-440 2 c0 -5 -4 -10 -9
-10 -6 0 -13 5 -16 10 -3 6 1 10 9 10 9 0 16 -4 16 -10z m66 -5 c10 -8 14 -15
8 -15 -5 0 -19 7 -30 15 -10 8 -14 15 -8 15 5 0 19 -7 30 -15z m-300 -26 c4
-7 -6 -9 -31 -5 -51 9 -65 19 -35 27 26 6 54 -3 66 -22z m140 2 c-4 -6 -13
-11 -19 -10 -9 0 -9 2 0 5 7 3 9 13 6 22 -5 13 -3 14 7 5 7 -6 9 -16 6 -22z
m205 16 c-1 -12 -15 -9 -19 4 -3 6 1 10 8 8 6 -3 11 -8 11 -12z m-146 -31
c-20 -14 -45 -11 -45 6 0 6 9 8 20 5 14 -4 20 0 20 11 0 12 3 13 12 4 9 -9 8
-15 -7 -26z m538 7 c-7 -2 -19 -2 -25 0 -7 3 -2 5 12 5 14 0 19 -2 13 -5z
m-483 -13 c0 -5 -4 -10 -10 -10 -5 0 -10 5 -10 10 0 6 5 10 10 10 6 0 10 -4
10 -10z m56 -5 c-3 -8 0 -15 6 -15 7 0 7 -4 -1 -13 -6 -8 -7 -18 -3 -23 4 -4
-2 -2 -12 6 -17 13 -19 13 -14 0 2 -8 14 -20 26 -26 33 -16 36 -22 9 -17 -25
5 -51 38 -42 54 4 5 11 7 16 4 5 -4 9 -1 9 5 0 7 -8 9 -20 5 -11 -4 -20 -2
-20 4 0 6 7 11 16 11 8 0 12 5 9 10 -3 6 1 10 10 10 11 0 15 -5 11 -15z m-166
-37 c0 -5 -7 -8 -15 -8 -13 0 -35 28 -35 45 0 9 49 -28 50 -37z m96 14 c-9 -9
-37 8 -31 18 5 8 11 7 21 -1 8 -6 12 -14 10 -17z m-176 8 c0 -5 -4 -10 -10
-10 -5 0 -10 5 -10 10 0 6 5 10 10 10 6 0 10 -4 10 -10z m140 -30 c0 -5 -2
-10 -4 -10 -3 0 -8 5 -11 10 -3 6 -1 10 4 10 6 0 11 -4 11 -10z m30 0 c0 -5
-2 -10 -4 -10 -3 0 -8 5 -11 10 -3 6 -1 10 4 10 6 0 11 -4 11 -10z m170 0 c0
-5 -4 -10 -10 -10 -5 0 -10 5 -10 10 0 6 5 10 10 10 6 0 10 -4 10 -10z m-144
-9 c-4 -5 -1 -12 4 -14 6 -3 5 -4 -2 -3 -15 3 -23 26 -8 26 6 0 9 -4 6 -9z
m178 0 c3 -5 -1 -11 -9 -14 -9 -4 -12 -1 -8 9 6 16 10 17 17 5z m-206 -27 c30
-15 44 -44 21 -44 -5 0 -8 4 -4 9 3 5 -11 15 -30 22 -19 7 -35 17 -35 21 0 12
13 10 48 -8z m152 6 c13 -8 13 -10 -2 -10 -9 0 -20 5 -23 10 -8 13 5 13 25 0z
m75 -30 c3 -5 1 -10 -4 -10 -6 0 -11 5 -11 10 0 6 2 10 4 10 3 0 8 -4 11 -10z
m-75 -146 c0 -4 -31 1 -72 13 -10 2 -18 8 -18 13 0 5 20 2 45 -7 25 -8 45 -17
45 -19z m345 7 c10 -17 -11 -21 -31 -6 -18 14 -18 14 3 15 12 0 24 -4 28 -9z
m-370 -28 c19 -15 18 -15 -19 -10 -22 4 -44 11 -50 17 -17 17 47 11 69 -7z
m671 -2 c-4 -6 -14 -7 -23 -4 -15 6 -14 7 3 13 22 9 29 6 20 -9z m-241 -11 c3
-5 2 -10 -4 -10 -5 0 -13 5 -16 10 -3 6 -2 10 4 10 5 0 13 -4 16 -10z m230
-19 c-2 -2 18 -15 46 -28 67 -34 56 -41 -13 -10 -30 14 -63 25 -73 24 -10 -1
-20 3 -22 9 -2 7 9 11 31 10 19 0 33 -3 31 -5z"/>
<path d="M2005 2870 c-3 -5 -1 -10 4 -10 6 0 11 5 11 10 0 6 -2 10 -4 10 -3 0
-8 -4 -11 -10z"/>
<path d="M2086 2836 c7 -19 58 -22 52 -3 -3 6 -17 13 -31 15 -21 3 -26 0 -21
-12z"/>
<path d="M2450 2825 c0 -8 4 -15 9 -15 5 0 11 7 15 15 3 9 0 15 -9 15 -8 0
-15 -7 -15 -15z"/>
<path d="M2386 2822 c-2 -4 -1 -14 4 -21 6 -11 10 -9 19 8 10 17 9 21 -3 21
-8 0 -17 -4 -20 -8z"/>
<path d="M2150 2796 c0 -17 14 -29 23 -20 8 8 -3 34 -14 34 -5 0 -9 -6 -9 -14z"/>
<path d="M2505 2800 c-4 -6 -11 -8 -16 -5 -5 4 -9 -1 -9 -9 0 -14 3 -14 20 -4
11 7 20 16 20 20 0 11 -8 10 -15 -2z"/>
<path d="M2431 2781 c-8 -5 -20 -7 -28 -4 -8 3 -13 -2 -13 -16 0 -13 -5 -19
-14 -15 -8 3 -17 1 -21 -5 -10 -17 -25 -13 -25 6 0 14 -2 14 -21 -3 -19 -17
-19 -19 -2 -25 10 -4 22 -4 27 -1 5 3 24 5 43 4 25 -1 33 3 33 16 0 10 3 13 8
7 9 -14 50 -17 57 -4 4 5 1 9 -5 9 -6 0 -8 4 -5 10 4 6 -1 7 -12 4 -16 -5 -16
-4 1 10 14 12 16 16 5 16 -8 0 -20 -4 -28 -9z"/>
<path d="M2507 2774 c-8 -8 3 -34 15 -34 7 0 6 5 -1 13 -6 8 -8 17 -4 20 3 4
4 7 1 7 -2 0 -7 -3 -11 -6z"/>
<path d="M2484 2727 c-12 -13 12 -47 33 -47 19 0 16 24 -4 42 -13 12 -21 13
-29 5z"/>
<path d="M1024 2709 c-3 -6 -2 -15 3 -20 5 -5 9 -1 9 11 0 23 -2 24 -12 9z"/>
<path d="M2132 2700 c0 -14 2 -19 5 -12 2 6 2 18 0 25 -3 6 -5 1 -5 -13z"/>
<path d="M2350 2699 c0 -5 4 -7 10 -4 5 3 18 1 29 -4 14 -8 22 -7 31 4 11 13
6 15 -29 15 -22 0 -41 -5 -41 -11z"/>
<path d="M2582 2668 c7 -15 15 -23 17 -17 2 6 -4 18 -13 27 -15 15 -15 15 -4
-10z"/>
<path d="M2470 2670 c-9 -6 -10 -10 -3 -10 6 0 15 5 18 10 8 12 4 12 -15 0z"/>
<path d="M2790 2654 c0 -8 5 -12 10 -9 6 3 10 10 10 16 0 5 -4 9 -10 9 -5 0
-10 -7 -10 -16z"/>
<path d="M2462 2639 c2 -7 10 -15 17 -17 8 -3 12 1 9 9 -2 7 -10 15 -17 17 -8
3 -12 -1 -9 -9z"/>
<path d="M3556 2631 c5 -5 20 -12 34 -15 24 -7 24 -6 6 8 -21 17 -57 23 -40 7z"/>
<path d="M2965 2620 c-3 -5 1 -10 9 -10 9 0 16 5 16 10 0 6 -4 10 -9 10 -6 0
-13 -4 -16 -10z"/>
<path d="M2420 2610 c-12 -7 -12 -12 -2 -22 9 -9 12 -8 12 8 0 16 2 17 10 4 8
-13 10 -12 10 3 0 19 -8 21 -30 7z"/>
<path d="M2870 2616 c0 -2 7 -6 15 -10 8 -3 15 -1 15 4 0 6 -7 10 -15 10 -8 0
-15 -2 -15 -4z"/>
<path d="M3310 2600 c0 -5 5 -10 10 -10 6 0 10 5 10 10 0 6 -4 10 -10 10 -5 0
-10 -4 -10 -10z"/>
<path d="M2928 2593 c7 -3 16 -2 19 1 4 3 -2 6 -13 5 -11 0 -14 -3 -6 -6z"/>
<path d="M3380 2590 c0 -5 6 -10 14 -10 8 0 18 5 21 10 3 6 -3 10 -14 10 -12
0 -21 -4 -21 -10z"/>
<path d="M761 2574 c0 -11 3 -14 6 -6 3 7 2 16 -1 19 -3 4 -6 -2 -5 -13z"/>
<path d="M1070 2572 c0 -5 7 -13 16 -16 8 -3 12 -10 9 -16 -3 -6 1 -7 9 -4 17
7 22 34 7 34 -5 0 -16 3 -25 6 -9 3 -16 2 -16 -4z"/>
<path d="M2830 2563 c0 -10 4 -14 8 -8 4 6 11 13 16 18 5 4 2 7 -7 7 -10 0
-17 -8 -17 -17z"/>
<path d="M2116 2561 c-8 -12 19 -74 38 -90 8 -7 19 -10 25 -7 5 3 11 2 13 -3
4 -13 58 -26 58 -14 0 5 -11 15 -24 22 -13 7 -38 33 -55 57 -30 43 -45 52 -55
35z"/>
<path d="M3423 2562 c-23 -3 -29 -13 -15 -26 7 -7 8 -12 11 -39 0 -7 8 -22 16
-33 13 -17 13 -16 2 14 -9 27 -9 34 2 41 22 14 9 46 -16 43z"/>
<path d="M3520 2560 c0 -5 5 -10 11 -10 5 0 7 5 4 10 -3 6 -8 10 -11 10 -2 0
-4 -4 -4 -10z"/>
<path d="M3565 2560 c3 -5 8 -10 11 -10 2 0 4 5 4 10 0 6 -5 10 -11 10 -5 0
-7 -4 -4 -10z"/>
<path d="M1195 2530 c3 -5 10 -10 16 -10 5 0 9 5 9 10 0 6 -7 10 -16 10 -8 0
-12 -4 -9 -10z"/>
<path d="M2816 2519 c-10 -10 -24 -15 -30 -13 -7 3 -13 -2 -13 -10 0 -11 5
-13 18 -5 11 6 20 5 24 -1 3 -5 1 -10 -5 -10 -6 0 -9 -4 -6 -9 4 -5 0 -11 -6
-14 -10 -3 -10 -8 -2 -17 13 -13 7 -53 -7 -44 -5 3 -9 1 -9 -5 0 -5 5 -13 10
-16 17 -11 11 -50 -10 -63 -12 -7 -18 -17 -15 -21 3 -5 -1 -11 -7 -14 -7 -2
-10 -7 -6 -11 9 -11 48 16 48 34 0 8 4 21 9 29 8 12 13 12 24 3 8 -7 22 -9 32
-6 10 4 21 1 26 -7 13 -21 11 -35 -3 -21 -15 15 -28 15 -28 1 0 -5 5 -7 11 -3
7 4 9 0 5 -14 -9 -28 16 -41 67 -33 4 0 3 10 -3 21 -6 11 -7 20 -2 20 5 0 14
-10 20 -22 l12 -23 -3 25 c-1 14 5 30 13 37 13 11 13 12 -2 13 -10 0 -18 -4
-18 -9 0 -6 -9 -9 -20 -8 -27 2 -26 25 2 29 12 2 23 9 26 16 3 11 1 11 -17 0
-18 -11 -23 -11 -31 2 -7 10 -12 12 -17 4 -13 -18 -51 -23 -70 -8 -10 7 -16
14 -13 14 3 1 16 4 29 6 36 7 36 11 2 19 -35 8 -38 17 -14 45 11 13 21 16 28
10 9 -7 11 4 11 43 -1 45 -4 52 -21 53 -11 0 -28 -7 -39 -17z"/>
<path d="M2931 2531 c-1 -8 -8 -11 -21 -8 -20 5 -20 5 0 -20 11 -14 17 -30 13
-36 -4 -6 -1 -7 6 -2 8 4 10 17 7 31 -4 16 -2 23 5 22 6 -2 14 4 16 12 4 12 3
12 -5 1 -8 -11 -10 -11 -15 0 -5 12 -6 12 -6 0z"/>
<path d="M2728 2513 c-18 -4 -25 -28 -10 -36 4 -2 20 -7 36 -11 26 -6 27 -6
12 9 -9 9 -14 20 -11 25 7 12 -6 17 -27 13z"/>
<path d="M3466 2484 c-10 -25 1 -29 14 -5 6 12 7 21 1 21 -5 0 -12 -7 -15 -16z"/>
<path d="M3401 2464 c-1 -12 7 -31 18 -43 18 -20 19 -20 24 -2 3 12 -1 18 -11
17 -9 0 -19 10 -23 24 -6 22 -7 22 -8 4z"/>
<path d="M890 2436 c0 -14 4 -27 9 -30 4 -3 8 8 7 24 -1 36 -16 41 -16 6z"/>
<path d="M2441 2437 c-6 -6 -21 -12 -33 -14 -23 -4 -34 -10 -27 -17 2 -2 22 2
44 9 44 16 54 13 36 -9 -7 -8 -13 -28 -13 -45 -1 -26 -5 -30 -31 -33 -17 -2
-33 -9 -35 -17 -3 -8 0 -11 5 -8 21 13 33 -9 23 -43 -7 -25 -6 -36 3 -42 9 -6
9 -10 -3 -17 -13 -9 -13 -11 0 -15 8 -3 28 -7 43 -8 27 -3 29 0 33 37 6 70 15
105 26 105 6 0 8 -9 5 -20 -3 -13 0 -20 9 -20 10 0 11 6 6 23 -4 12 -5 40 -1
62 6 38 6 38 8 8 0 -18 6 -33 11 -33 6 0 10 -8 10 -19 0 -10 8 -29 19 -42 10
-13 21 -33 24 -44 3 -11 4 -1 4 22 -1 24 -4 43 -7 43 -3 0 -6 8 -6 18 0 9 -4
34 -8 55 -4 24 -3 37 4 37 5 0 10 9 10 20 0 11 -5 20 -11 20 -6 0 -9 -7 -5
-15 6 -16 -9 -21 -18 -6 -3 5 -14 7 -25 4 -10 -2 -34 0 -54 5 -24 7 -39 6 -46
-1z"/>
<path d="M2740 2441 c0 -5 5 -13 10 -16 6 -3 10 -2 10 4 0 5 -4 13 -10 16 -5
3 -10 2 -10 -4z"/>
<path d="M2956 2425 c4 -8 8 -15 10 -15 2 0 4 7 4 15 0 8 -4 15 -10 15 -5 0
-7 -7 -4 -15z"/>
<path d="M2695 2420 c3 -5 12 -7 20 -3 21 7 19 13 -6 13 -11 0 -18 -4 -14 -10z"/>
<path d="M2200 2410 c0 -5 -6 -7 -14 -4 -8 3 -16 1 -20 -4 -3 -5 5 -8 16 -7
19 1 41 25 24 25 -3 0 -6 -4 -6 -10z"/>
<path d="M956 2395 c-3 -8 -1 -15 3 -15 5 0 11 7 15 15 3 8 1 15 -3 15 -5 0
-11 -7 -15 -15z"/>
<path d="M2270 2400 c-8 -5 -10 -10 -5 -10 6 0 17 5 25 10 8 5 11 10 5 10 -5
0 -17 -5 -25 -10z"/>
<path d="M3487 2389 c4 -13 8 -18 11 -10 2 7 -1 18 -6 23 -8 8 -9 4 -5 -13z"/>
<path d="M2927 2389 c-9 -6 -15 -14 -12 -20 10 -15 22 -10 28 11 3 11 4 20 4
20 -1 0 -10 -5 -20 -11z"/>
<path d="M871 2366 c-7 -8 -8 -17 -3 -20 6 -3 13 1 16 10 9 23 2 28 -13 10z"/>
<path d="M2248 2373 c6 -2 18 -2 25 0 6 3 1 5 -13 5 -14 0 -19 -2 -12 -5z"/>
<path d="M935 2320 c3 -5 8 -10 11 -10 2 0 4 5 4 10 0 6 -5 10 -11 10 -5 0 -7
-4 -4 -10z"/>
<path d="M3365 2309 c-4 -6 -5 -12 -2 -15 2 -3 7 2 10 11 7 17 1 20 -8 4z"/>
<path d="M3415 2290 c-3 -5 -1 -10 4 -10 6 0 11 5 11 10 0 6 -2 10 -4 10 -3 0
-8 -4 -11 -10z"/>
<path d="M3077 2259 c-4 -16 -3 -18 9 -8 16 13 19 29 5 29 -5 0 -11 -9 -14
-21z"/>
<path d="M2520 2260 c0 -5 5 -10 10 -10 6 0 10 5 10 10 0 6 -4 10 -10 10 -5 0
-10 -4 -10 -10z"/>
<path d="M3780 2260 c0 -5 5 -10 11 -10 5 0 7 5 4 10 -3 6 -8 10 -11 10 -2 0
-4 -4 -4 -10z"/>
<path d="M2056 2236 c3 -9 11 -16 16 -16 13 0 5 23 -10 28 -7 2 -10 -2 -6 -12z"/>
<path d="M3855 2232 c-14 -31 -17 -64 -5 -60 6 2 11 6 10 8 -1 3 3 17 9 32 11
30 -2 49 -14 20z"/>
<path d="M3306 2225 c-4 -10 1 -15 14 -15 13 0 18 5 14 15 -4 8 -10 15 -14 15
-4 0 -10 -7 -14 -15z"/>
<path d="M2950 2205 c0 -14 5 -25 10 -25 6 0 10 11 10 25 0 14 -4 25 -10 25
-5 0 -10 -11 -10 -25z"/>
<path d="M2500 2210 c0 -5 5 -10 11 -10 5 0 7 5 4 10 -3 6 -8 10 -11 10 -2 0
-4 -4 -4 -10z"/>
<path d="M2850 2209 c0 -5 5 -7 10 -4 6 3 10 8 10 11 0 2 -4 4 -10 4 -5 0 -10
-5 -10 -11z"/>
<path d="M2095 2198 c4 -10 3 -18 -2 -18 -5 0 -9 -9 -10 -20 -1 -11 3 -20 8
-20 6 0 7 5 4 10 -3 6 -1 10 4 10 6 0 11 -6 11 -13 0 -8 10 -19 23 -24 22 -11
21 -11 -8 -19 -49 -12 -130 -51 -144 -68 -11 -13 -11 -20 -3 -28 9 -9 12 -7
12 8 1 19 1 19 15 0 15 -20 15 -20 15 0 1 18 1 18 11 1 12 -21 29 -14 29 12 0
14 13 21 57 30 64 13 78 6 88 -40 5 -22 12 -29 28 -28 17 1 18 2 4 6 -9 2 -15
9 -11 14 3 5 10 7 15 4 27 -17 -4 53 -32 73 -10 7 -16 18 -14 25 3 6 -11 23
-31 37 -19 14 -44 34 -55 45 -17 17 -19 17 -14 3z"/>
<path d="M2560 2196 c0 -2 7 -6 15 -10 8 -3 15 -1 15 4 0 6 -7 10 -15 10 -8 0
-15 -2 -15 -4z"/>
<path d="M2780 2180 c6 -11 16 -20 23 -20 8 0 8 3 -2 9 -7 5 -10 14 -7 20 4 6
0 11 -9 11 -13 0 -14 -4 -5 -20z"/>
<path d="M3297 2193 c-9 -2 -15 -9 -12 -14 4 -5 0 -9 -8 -9 -8 0 -17 -9 -20
-20 -4 -16 2 -13 29 12 29 28 41 41 32 37 -2 -1 -11 -3 -21 -6z"/>
<path d="M3567 2170 c-9 -11 -17 -23 -17 -27 0 -3 -7 -15 -17 -25 -9 -11 -11
-18 -5 -18 7 0 12 3 12 8 0 4 12 20 26 35 14 15 24 32 22 38 -2 5 -11 0 -21
-11z"/>
<path d="M2595 2170 c-3 -6 1 -7 9 -4 18 7 21 14 7 14 -6 0 -13 -4 -16 -10z"/>
<path d="M2605 2140 c3 -5 14 -10 23 -10 15 0 15 2 2 10 -20 13 -33 13 -25 0z"/>
<path d="M2390 2130 c0 -5 7 -7 15 -4 8 4 15 8 15 10 0 2 -7 4 -15 4 -8 0 -15
-4 -15 -10z"/>
<path d="M3595 2130 c-3 -5 -1 -10 4 -10 6 0 11 5 11 10 0 6 -2 10 -4 10 -3 0
-8 -4 -11 -10z"/>
<path d="M3258 2109 c-21 -22 -23 -33 -5 -23 9 5 9 3 -1 -7 -11 -12 -14 -12
-22 1 -10 16 -10 16 -14 -18 -3 -29 -26 -53 -33 -34 -6 16 -33 15 -33 -2 0 -7
12 -21 26 -31 15 -9 23 -12 20 -6 -4 6 -2 11 5 11 7 0 10 3 6 6 -6 7 33 54 45
54 4 0 8 -7 8 -15 0 -8 5 -15 11 -15 5 0 8 4 4 9 -3 5 2 16 10 24 19 20 19 37
0 37 -9 0 -12 6 -9 15 8 19 3 18 -18 -6z"/>
<path d="M3310 2114 c0 -8 5 -12 10 -9 6 3 10 10 10 16 0 5 -4 9 -10 9 -5 0
-10 -7 -10 -16z"/>
<path d="M1951 2111 c-10 -6 -10 -13 -2 -28 5 -11 7 -24 3 -28 -4 -4 5 -1 20
6 15 6 25 16 22 21 -3 5 -13 3 -22 -4 -14 -10 -15 -10 -4 2 24 28 13 50 -17
31z"/>
<path d="M2235 2110 c-3 -5 -1 -10 4 -10 6 0 11 5 11 10 0 6 -2 10 -4 10 -3 0
-8 -4 -11 -10z"/>
<path d="M2260 2110 c0 -5 5 -10 11 -10 5 0 7 5 4 10 -3 6 -8 10 -11 10 -2 0
-4 -4 -4 -10z"/>
<path d="M2951 2104 c0 -11 3 -14 6 -6 3 7 2 16 -1 19 -3 4 -6 -2 -5 -13z"/>
<path d="M1808 2103 c6 -2 18 -2 25 0 6 3 1 5 -13 5 -14 0 -19 -2 -12 -5z"/>
<path d="M2000 2100 c0 -6 7 -10 15 -10 8 0 15 2 15 4 0 2 -7 6 -15 10 -8 3
-15 1 -15 -4z"/>
<path d="M1250 2093 c0 -5 6 -15 13 -24 9 -13 15 -14 23 -4 9 9 7 15 -7 23
-22 14 -29 15 -29 5z"/>
<path d="M1425 2080 c3 -5 8 -10 11 -10 2 0 4 5 4 10 0 6 -5 10 -11 10 -5 0
-7 -4 -4 -10z"/>
<path d="M1780 2087 c0 -2 15 -14 33 -27 l32 -23 -24 26 c-21 23 -41 35 -41
24z"/>
<path d="M2264 2075 c22 -17 36 -19 36 -6 0 10 -24 21 -43 21 -7 0 -3 -7 7
-15z"/>
<path d="M3390 2065 c-7 -8 -8 -15 -2 -15 5 0 15 7 22 15 7 8 8 15 2 15 -5 0
-15 -7 -22 -15z"/>
<path d="M3450 2069 c0 -5 5 -7 10 -4 6 3 10 8 10 11 0 2 -4 4 -10 4 -5 0 -10
-5 -10 -11z"/>
<path d="M1318 2064 c-9 -8 0 -47 18 -83 8 -14 14 -32 14 -39 0 -7 5 -10 12
-6 7 4 8 3 4 -5 -10 -15 22 -27 37 -12 6 6 7 14 3 18 -4 4 -11 1 -16 -7 -6 -9
-10 -10 -10 -3 0 6 5 15 10 18 6 3 10 12 10 18 0 8 -3 7 -9 -2 -18 -28 -48 2
-42 42 0 4 -3 7 -8 7 -6 0 -11 14 -13 31 -2 17 -6 28 -10 23z"/>
<path d="M1361 2043 c-2 -24 23 -63 38 -63 14 1 14 2 -1 14 -10 7 -22 24 -27
37 -5 13 -10 19 -10 12z"/>
<path d="M1285 2030 c3 -5 8 -10 11 -10 2 0 4 5 4 10 0 6 -5 10 -11 10 -5 0
-7 -4 -4 -10z"/>
<path d="M3124 2006 c-8 -8 -7 -15 2 -23 9 -9 15 -9 23 1 15 18 -9 40 -25 22z"/>
<path d="M2534 2001 c8 -13 46 -21 46 -9 0 6 7 4 17 -3 14 -12 16 -12 11 1 -3
9 -20 16 -42 18 -21 1 -35 -2 -32 -7z"/>
<path d="M2846 1950 c4 -19 3 -22 -5 -10 -14 20 -14 4 1 -37 7 -20 17 -32 25
-29 8 3 13 -2 13 -14 0 -11 5 -20 11 -20 5 0 7 -5 3 -12 -5 -8 -2 -9 9 -5 10
3 17 2 17 -3 0 -6 12 -10 26 -10 21 0 24 3 15 14 -6 7 -12 25 -13 40 -2 21 -8
26 -28 26 -18 0 -21 3 -11 9 16 10 6 31 -14 31 -14 0 -28 27 -20 40 3 5 -4 8
-14 7 -16 -1 -19 -6 -15 -27z"/>
<path d="M1507 1963 c-10 -10 -8 -52 3 -74 6 -10 21 -19 34 -19 25 0 36 17 35
53 l0 22 -9 -21 c-19 -49 -60 -33 -55 21 3 27 2 29 -8 18z"/>
<path d="M1687 1963 c-4 -6 -4 -20 1 -32 5 -15 11 -18 22 -11 10 7 12 12 4 18
-6 4 -13 14 -16 22 -3 9 -7 10 -11 3z"/>
<path d="M2313 1946 c-13 -6 -23 -14 -23 -19 0 -4 8 -3 19 2 10 6 21 8 23 5 3
-2 11 2 18 11 15 18 -2 19 -37 1z"/>
<path d="M2749 1952 c11 -8 11 -10 0 -14 -9 -3 -8 -6 5 -11 13 -5 17 -3 14 10
-2 9 -10 18 -18 20 -12 4 -12 3 -1 -5z"/>
<path d="M3060 1949 c0 -5 5 -7 10 -4 6 3 10 8 10 11 0 2 -4 4 -10 4 -5 0 -10
-5 -10 -11z"/>
<path d="M1240 1940 c0 -5 5 -10 11 -10 5 0 7 5 4 10 -3 6 -8 10 -11 10 -2 0
-4 -4 -4 -10z"/>
<path d="M1331 1938 c-1 -10 5 -23 12 -30 8 -7 12 -20 9 -30 -5 -21 13 -24 21
-4 3 8 -1 20 -10 27 -8 8 -19 22 -23 34 -7 16 -9 17 -9 3z"/>
<path d="M2480 1930 c0 -5 5 -10 11 -10 5 0 7 5 4 10 -3 6 -8 10 -11 10 -2 0
-4 -4 -4 -10z"/>
<path d="M2560 1930 c0 -5 5 -10 11 -10 5 0 7 5 4 10 -3 6 -8 10 -11 10 -2 0
-4 -4 -4 -10z"/>
<path d="M1296 1922 c-2 -4 2 -18 11 -32 9 -16 12 -18 7 -5 -3 11 -7 26 -7 33
0 14 -4 15 -11 4z"/>
<path d="M1740 1895 c7 -8 17 -15 22 -15 6 0 5 7 -2 15 -7 8 -17 15 -22 15 -6
0 -5 -7 2 -15z"/>
<path d="M2284 1883 c-13 -12 -24 -29 -24 -37 0 -8 -3 -22 -7 -32 -4 -12 -3
-15 5 -10 7 4 12 2 12 -3 0 -6 14 -11 31 -11 17 0 28 -4 24 -10 -3 -5 3 -10
14 -10 30 0 40 46 15 65 -16 12 -17 18 -7 44 11 29 10 31 -14 29 -14 -2 -36
-13 -49 -25z m66 -68 c0 -8 -4 -15 -10 -15 -5 0 -10 7 -10 15 0 8 5 15 10 15
6 0 10 -7 10 -15z"/>
<path d="M2586 1892 c-3 -6 -1 -14 5 -17 14 -9 20 -2 10 14 -6 8 -11 9 -15 3z"/>
<path d="M1700 1862 c0 -22 29 -71 49 -82 33 -17 41 -11 18 13 -12 12 -32 36
-44 52 -12 17 -23 24 -23 17z"/>
<path d="M1836 1861 c-3 -5 1 -14 8 -20 12 -10 13 -8 9 8 -6 23 -9 25 -17 12z"/>
<path d="M2380 1865 c0 -3 13 -20 30 -38 16 -18 30 -43 31 -57 0 -23 1 -23 9
-5 12 28 12 45 -1 45 -14 0 -40 26 -33 33 3 3 -4 10 -15 17 -12 6 -21 8 -21 5z"/>
<path d="M1369 1838 c-7 -13 -4 -46 3 -42 5 3 7 12 4 19 -3 8 3 16 12 18 16 4
15 5 0 6 -10 0 -19 0 -19 -1z"/>
<path d="M1772 1813 c2 -9 8 -18 14 -20 16 -5 13 25 -3 32 -10 3 -13 -1 -11
-12z"/>
<path d="M1680 1788 c-11 -22 -10 -22 4 -4 9 11 16 14 16 8 0 -7 5 -12 11 -12
13 0 7 22 -8 27 -7 3 -17 -6 -23 -19z"/>
<path d="M1391 1793 c-1 -7 -8 -13 -16 -13 -10 0 -15 -10 -15 -26 l0 -27 21
27 c11 14 18 32 16 39 -4 9 -6 9 -6 0z"/>
<path d="M3100 1760 c6 -11 13 -20 15 -20 2 0 3 9 2 20 -1 11 -7 20 -14 20
-11 0 -11 -5 -3 -20z"/>
<path d="M1678 1763 c-10 -2 -18 -8 -18 -13 0 -4 8 -14 18 -21 15 -13 16 -12
3 4 -12 15 -11 17 3 17 9 0 16 5 16 10 0 6 -1 9 -2 9 -2 -1 -11 -3 -20 -6z"/>
<path d="M1723 1763 c24 -6 21 -22 -5 -33 -34 -13 -13 -11 87 10 50 11 70 17
45 15 -25 -2 -57 -6 -72 -10 -22 -6 -28 -4 -28 9 0 10 -8 16 -22 15 -17 -1
-19 -2 -5 -6z"/>
<path d="M2896 1753 c-6 -14 -5 -15 5 -6 7 7 10 15 7 18 -3 3 -9 -2 -12 -12z"/>
<path d="M4085 1760 c-2 -3 7 -7 21 -8 13 -1 24 2 24 6 0 9 -40 11 -45 2z"/>
<path d="M1417 1747 c-11 -29 -9 -43 4 -30 6 6 9 19 7 29 -3 18 -4 18 -11 1z"/>
<path d="M1612 1738 c-23 -23 -14 -38 21 -31 43 8 47 13 11 13 -28 1 -28 1
-10 15 15 11 16 15 5 15 -8 0 -20 -5 -27 -12z"/>
<path d="M2189 1708 c-12 -18 -24 -35 -25 -37 -2 -2 -24 7 -51 20 -64 31 -180
37 -315 15 -57 -10 -118 -22 -136 -28 l-33 -10 33 -19 c18 -10 41 -21 50 -25
13 -4 16 -13 11 -35 -5 -25 -2 -29 16 -29 12 0 24 7 27 15 4 8 10 15 16 15 5
0 6 -5 2 -12 -5 -8 0 -9 14 -6 12 4 25 2 28 -4 3 -5 14 -8 24 -5 12 3 17 0 14
-8 -3 -7 -1 -16 5 -20 6 -3 11 0 11 7 0 7 9 -3 19 -22 11 -19 24 -34 30 -33 6
2 8 -3 5 -10 -5 -14 67 -43 96 -38 12 1 13 0 1 -8 -10 -7 -2 -14 35 -30 63
-28 78 -25 82 19 3 33 0 37 -40 53 -48 20 -94 54 -85 63 8 9 48 -6 42 -15 -2
-5 13 -7 33 -5 33 3 41 -1 55 -25 9 -16 17 -36 17 -45 0 -20 55 -76 75 -76 7
0 15 -6 17 -12 3 -9 9 -8 21 4 19 18 23 33 7 23 -5 -3 -10 -1 -10 4 0 19 19
12 31 -10 8 -16 13 -18 19 -9 5 8 10 9 14 2 3 -6 2 -13 -4 -17 -5 -3 -10 -12
-10 -18 0 -7 4 -6 10 3 7 12 12 12 29 -4 18 -16 23 -17 38 -5 15 12 16 12 10
-3 -7 -19 8 -35 17 -19 3 5 22 9 42 9 34 0 35 -1 15 -15 -12 -8 -21 -21 -21
-29 0 -8 -6 -14 -14 -14 -21 0 -14 -44 7 -48 12 -3 34 13 62 44 37 42 45 47
59 35 14 -12 16 -10 16 13 0 14 -9 35 -20 46 -22 22 -27 35 -8 24 8 -5 9 -2 5
10 -4 10 -7 20 -7 22 0 3 -4 3 -10 -1 -5 -3 -26 1 -46 10 l-37 15 22 21 c26
24 22 36 -7 18 -27 -17 -78 7 -93 43 -8 20 -19 28 -35 28 -13 0 -24 5 -24 10
0 6 8 10 18 10 12 0 10 4 -8 13 -28 14 -41 57 -17 57 8 0 20 7 27 15 10 12 10
15 -1 15 -8 0 -20 9 -26 19 -12 19 -54 43 -100 56 -16 4 -26 -2 -44 -27z m115
-112 c-8 -27 -11 -29 -23 -21 -6 3 -9 11 -6 16 4 5 1 9 -4 9 -23 0 -10 15 14
16 22 2 25 -1 19 -20z m25 -117 c-19 -12 -29 -11 -29 1 0 6 -7 10 -15 10 -8 0
-15 -7 -15 -15 0 -20 -29 -19 -52 2 -34 31 -15 58 29 42 14 -5 32 -3 50 6 27
14 28 14 37 -11 6 -19 5 -29 -5 -35z m-339 -9 c0 -5 -4 -10 -9 -10 -6 0 -13 5
-16 10 -3 6 1 10 9 10 9 0 16 -4 16 -10z m337 -35 c8 -9 12 -22 9 -30 -4 -12
-9 -12 -28 -2 -52 28 -54 31 -28 38 14 4 26 7 28 8 2 1 10 -6 19 -14z m163
-64 c0 -5 -8 -11 -17 -15 -10 -3 -24 -9 -32 -12 -7 -4 -5 3 5 14 20 21 44 28
44 13z m10 -35 c0 -2 -7 -7 -16 -10 -8 -3 -12 -2 -9 4 6 10 25 14 25 6z"/>
<path d="M2436 1723 c-6 -14 -5 -15 5 -6 7 7 10 15 7 18 -3 3 -9 -2 -12 -12z"/>
<path d="M1375 1720 c-11 -17 9 -40 25 -30 13 8 12 10 -4 10 -12 0 -16 5 -12
15 6 17 0 20 -9 5z"/>
<path d="M1556 1713 c-8 -8 -13 -9 -63 -11 -18 -1 -33 -6 -33 -12 0 -14 102 0
120 16 12 12 12 14 -1 14 -9 0 -19 -3 -23 -7z"/>
<path d="M3128 1679 c-43 -21 -78 -41 -78 -43 0 -8 115 45 140 64 36 28 25 24
-62 -21z"/>
<path d="M3430 1711 c0 -5 5 -13 10 -16 6 -3 10 -2 10 4 0 5 -4 13 -10 16 -5
3 -10 2 -10 -4z"/>
<path d="M1340 1680 c0 -5 5 -10 11 -10 5 0 7 5 4 10 -3 6 -8 10 -11 10 -2 0
-4 -4 -4 -10z"/>
<path d="M1428 1683 c7 -3 16 -2 19 1 4 3 -2 6 -13 5 -11 0 -14 -3 -6 -6z"/>
<path d="M3356 1674 c-8 -22 -8 -24 6 -24 6 0 8 3 5 7 -4 3 -2 12 4 20 7 8 8
13 1 13 -5 0 -13 -7 -16 -16z"/>
<path d="M2401 1643 c0 -6 -4 -20 -7 -30 -5 -14 -4 -15 5 -7 7 7 11 20 8 30
-3 11 -5 14 -6 7z"/>
<path d="M2451 1627 c-1 -10 -12 -29 -26 -43 -30 -30 -31 -34 -6 -34 28 0 53
43 42 72 -8 18 -10 19 -10 5z"/>
<path d="M2350 1621 c0 -6 5 -13 10 -16 6 -3 10 1 10 9 0 9 -4 16 -10 16 -5 0
-10 -4 -10 -9z"/>
<path d="M3155 1620 c-3 -5 -1 -10 4 -10 6 0 11 5 11 10 0 6 -2 10 -4 10 -3 0
-8 -4 -11 -10z"/>
<path d="M3156 1591 c-5 -8 -2 -20 8 -29 17 -17 19 -9 7 22 -6 15 -10 16 -15
7z"/>
<path d="M3315 1570 c-4 -16 -4 -34 -1 -39 4 -5 0 -12 -6 -14 -9 -4 -7 -6 3
-6 11 -1 16 7 16 27 0 15 3 35 7 45 5 10 4 17 -2 17 -6 0 -13 -13 -17 -30z"/>
<path d="M3112 1565 c-12 -25 -11 -26 10 -19 32 9 34 12 17 30 -14 13 -17 12
-27 -11z"/>
<path d="M2465 1560 c-3 -5 -1 -10 4 -10 6 0 11 5 11 10 0 6 -2 10 -4 10 -3 0
-8 -4 -11 -10z"/>
<path d="M2505 1549 c-11 -11 -15 -20 -10 -19 28 6 38 0 25 -15 -10 -12 -9
-15 5 -15 12 0 16 -6 12 -20 -3 -11 -2 -20 2 -20 14 0 146 59 148 67 2 4 -20
8 -47 9 -41 1 -48 -1 -39 -12 9 -11 8 -14 -4 -14 -9 0 -19 9 -22 20 -4 11 -11
18 -16 15 -5 -4 -12 1 -15 9 -8 20 -14 19 -39 -5z m85 -53 c0 -3 -4 -8 -10
-11 -5 -3 -10 -1 -10 4 0 6 5 11 10 11 6 0 10 -2 10 -4z"/>
<path d="M3451 1531 c-13 -12 -30 -21 -38 -21 -7 0 -13 -11 -13 -24 0 -14 -7
-32 -16 -40 -14 -14 -11 -15 31 -10 45 5 46 4 40 -17 -4 -13 -14 -29 -21 -37
-16 -15 -19 -26 -5 -18 5 4 11 0 14 -6 8 -24 38 104 35 149 l-3 45 -24 -21z"/>
<path d="M3159 1531 c10 -7 11 -13 2 -30 -13 -23 -7 -41 12 -41 8 0 8 3 -1 9
-10 6 -6 11 16 20 16 7 33 11 38 10 30 -5 23 4 -15 21 -44 20 -78 27 -52 11z"/>
<path d="M3091 1516 c-9 -11 -5 -13 19 -12 17 1 30 7 30 14 0 16 -35 15 -49
-2z"/>
<path d="M3995 1499 c-11 -16 -1 -19 13 -3 7 8 8 14 3 14 -5 0 -13 -5 -16 -11z"/>
<path d="M3251 1482 c-12 -12 -11 -13 7 -8 11 4 23 2 27 -4 3 -6 11 -7 17 -4
7 5 9 0 6 -14 -9 -34 9 -26 21 9 14 41 14 41 -9 27 -15 -10 -25 -10 -38 -2
-13 9 -21 8 -31 -4z"/>
<path d="M4067 1461 c-7 -27 5 -42 20 -25 8 8 9 15 3 19 -6 4 -8 11 -5 16 4 5
2 9 -3 9 -5 0 -12 -9 -15 -19z"/>
<path d="M3210 1459 c0 -5 5 -7 10 -4 6 3 10 8 10 11 0 2 -4 4 -10 4 -5 0 -10
-5 -10 -11z"/>
<path d="M3825 1419 c-4 -6 -5 -13 -2 -16 7 -7 27 6 27 18 0 12 -17 12 -25 -2z"/>
<path d="M3915 1407 c-10 -8 -15 -19 -11 -26 5 -7 0 -21 -11 -33 -15 -18 -16
-21 -1 -15 14 5 15 1 7 -25 -7 -25 -6 -29 3 -20 7 7 13 22 14 35 0 12 4 37 9
56 6 28 9 31 17 18 5 -9 13 -17 19 -17 5 0 4 9 -3 20 -15 24 -18 24 -43 7z"/>
<path d="M3766 1385 c-10 -7 -15 -18 -12 -24 4 -5 2 -12 -4 -16 -5 -3 -10 -2
-10 3 0 15 -34 10 -47 -7 -12 -17 -7 -35 8 -25 5 3 7 10 4 15 -9 14 5 11 21
-6 11 -10 21 -12 39 -5 22 8 25 7 26 -13 1 -17 2 -18 6 -4 2 9 8 15 13 12 4
-3 10 2 14 10 4 10 -1 15 -14 15 -21 0 -27 15 -10 25 14 9 12 35 -2 35 -7 0
-21 -7 -32 -15z"/>
<path d="M4078 1383 c7 -3 16 -2 19 1 4 3 -2 6 -13 5 -11 0 -14 -3 -6 -6z"/>
<path d="M3994 1359 c-3 -6 -1 -16 5 -22 8 -8 11 -5 11 11 0 24 -5 28 -16 11z"/>
<path d="M2303 1318 c-16 -21 -23 -48 -13 -48 6 0 10 -5 10 -11 0 -5 -10 -3
-22 5 -28 20 -38 20 -38 1 0 -8 4 -15 8 -15 5 0 19 -9 32 -20 18 -16 26 -18
33 -8 6 9 10 10 13 2 7 -17 44 -5 37 12 -3 8 -9 11 -14 9 -5 -3 -11 6 -15 20
-3 13 -10 23 -14 20 -4 -2 -5 7 -2 20 5 27 0 32 -15 13z"/>
<path d="M3267 1296 c-8 -20 2 -26 42 -25 20 1 28 3 19 6 -10 2 -18 9 -18 14
0 6 -4 7 -10 4 -5 -3 -10 -1 -10 4 0 16 -17 13 -23 -3z"/>
<path d="M3228 1273 c7 -3 16 -2 19 1 4 3 -2 6 -13 5 -11 0 -14 -3 -6 -6z"/>
<path d="M3450 1241 c0 -7 6 -13 13 -15 51 -16 53 -17 36 -29 -14 -10 -14 -14
-3 -25 8 -7 14 -9 14 -4 0 5 10 14 23 20 17 8 18 11 5 11 -10 1 -18 5 -18 9 0
8 -14 16 -62 40 -5 2 -8 -1 -8 -7z"/>
<path d="M2402 1223 c-6 -3 -10 -9 -6 -14 7 -12 44 -12 44 0 0 11 -21 19 -38
14z"/>
<path d="M3180 1160 c-8 -5 -10 -10 -5 -10 6 0 17 5 25 10 8 5 11 10 5 10 -5
0 -17 -5 -25 -10z"/>
<path d="M3630 1148 c-12 -22 -12 -22 6 -6 10 10 15 20 12 24 -4 3 -12 -5 -18
-18z"/>
<path d="M4670 1159 c0 -5 5 -7 10 -4 6 3 10 8 10 11 0 2 -4 4 -10 4 -5 0 -10
-5 -10 -11z"/>
<path d="M2740 1142 c0 -12 -4 -22 -8 -22 -4 0 -9 -12 -10 -26 -1 -14 -11 -47
-22 -72 -22 -50 -16 -69 15 -46 14 11 19 27 20 64 0 33 4 50 13 50 8 0 11 10
7 32 -7 39 -15 49 -15 20z"/>
<path d="M3695 1109 c6 -28 9 -31 29 -23 15 6 14 8 -5 25 -28 24 -29 24 -24
-2z"/>
<path d="M2810 1103 c8 -3 18 -11 22 -17 5 -7 8 -4 8 7 0 11 -7 17 -22 16 -16
0 -18 -2 -8 -6z"/>
<path d="M3877 1071 c-3 -14 1 -20 19 -24 29 -5 31 4 5 27 -17 16 -19 16 -24
-3z"/>
<path d="M2908 1055 c-4 -4 -33 -8 -66 -9 -54 -1 -58 -2 -48 -19 9 -14 18 -17
46 -12 19 4 39 10 45 13 5 4 17 5 27 4 9 -2 20 2 24 9 4 7 3 9 -4 5 -5 -3 -12
-1 -14 5 -2 5 -6 7 -10 4z"/>
<path d="M3570 1000 c0 -5 5 -10 11 -10 5 0 7 5 4 10 -3 6 -8 10 -11 10 -2 0
-4 -4 -4 -10z"/>
<path d="M3326 963 c-13 -14 -5 -23 19 -21 14 1 25 7 25 13 0 12 -34 17 -44 8z"/>
<path d="M3700 930 c-9 -17 -7 -22 15 -30 42 -16 65 -12 65 10 0 13 -7 20 -19
20 -11 0 -23 5 -26 10 -10 16 -23 12 -35 -10z"/>
<path d="M3154 879 c-4 -7 -2 -10 7 -7 8 3 21 -1 30 -8 13 -12 18 -12 35 0 19
15 19 15 -1 14 -11 -1 -30 2 -42 6 -13 4 -24 2 -29 -5z"/>
<path d="M3378 850 l-33 -29 48 17 c61 23 81 42 44 42 -16 0 -40 -12 -59 -30z"/>
<path d="M3820 830 c0 -5 5 -10 11 -10 5 0 7 5 4 10 -3 6 -8 10 -11 10 -2 0
-4 -4 -4 -10z"/>
<path d="M3010 810 c0 -5 5 -10 10 -10 6 0 10 5 10 10 0 6 -4 10 -10 10 -5 0
-10 -4 -10 -10z"/>
<path d="M3230 809 c0 -6 -7 -9 -15 -5 -8 3 -15 1 -15 -4 0 -6 -10 -10 -22
-10 -19 -1 -20 -2 -7 -10 9 -5 28 -6 45 0 16 4 25 9 20 9 -5 1 -3 8 4 16 9 10
9 15 1 15 -6 0 -11 -5 -11 -11z"/>
<path d="M3265 790 c-3 -5 -2 -10 4 -10 5 0 13 5 16 10 3 6 2 10 -4 10 -5 0
-13 -4 -16 -10z"/>
<path d="M2840 760 c0 -5 5 -10 11 -10 5 0 7 5 4 10 -3 6 -8 10 -11 10 -2 0
-4 -4 -4 -10z"/>
<path d="M3363 763 c9 -2 23 -2 30 0 6 3 -1 5 -18 5 -16 0 -22 -2 -12 -5z"/>
<path d="M2711 744 c0 -11 3 -14 6 -6 3 7 2 16 -1 19 -3 4 -6 -2 -5 -13z"/>
<path d="M3270 744 c0 -9 11 -14 28 -14 16 0 43 -7 60 -16 17 -8 48 -17 69
-20 l38 -4 -35 11 c-19 6 -39 17 -43 25 -4 8 -23 14 -41 14 -18 0 -36 3 -40 7
-13 13 -36 11 -36 -3z"/>
<path d="M2701 711 c-8 -5 -9 -11 -3 -15 5 -3 12 1 16 9 6 17 6 18 -13 6z"/>
<path d="M2813 693 c-15 -5 -17 -23 -4 -23 5 0 11 7 15 15 3 8 4 15 3 14 -1 0
-8 -3 -14 -6z"/>
<path d="M3275 684 c52 -14 173 -19 125 -5 -14 4 -59 10 -100 14 l-75 6 50
-15z"/>
<path d="M2771 661 c-9 -6 0 -10 28 -13 40 -3 44 5 6 16 -11 3 -26 2 -34 -3z"/>
<path d="M3036 661 c-4 -5 41 -10 106 -10 61 -1 110 0 107 2 -10 9 -208 16
-213 8z"/>
<path d="M2775 521 c-7 -12 12 -24 25 -16 11 7 4 25 -10 25 -5 0 -11 -4 -15
-9z"/>
<path d="M2890 460 c8 -5 20 -10 25 -10 6 0 3 5 -5 10 -8 5 -19 10 -25 10 -5
0 -3 -5 5 -10z"/>
</g>
</svg>
